<svg xmlns="http://www.w3.org/2000/svg" width="458.993" height="281.548" viewBox="0 0 458.993 281.548"><defs><style>.a{fill:#fff;}.b{fill:#87cce3;}.c{fill:#f4b467;}.d{fill:#211715;}.e{fill:#85807f;}</style></defs><path class="a" d="M239.353,145.334c-9.356-6.815-8.272-9.521-23.889-9.813l-69.971,12.572a23.75,23.75,0,0,0-3.11-3.53,9.074,9.074,0,0,0-2.24-1.62,10.055,10.055,0,0,0-3.69-.76c-7.96-.49-20.94,6.1-26.11,12.18l-3.05-.14c2.1-9.86.96-22.17-3.82-31.04-3.61-6.71-9.97-10.42-17.18-12.22-6.25-1.55-12.82-1.19-19.29-1.51s-13.47-1.95-17.27-6.83c-1.93-2.48-2.8-5.52-3.78-8.45-1.89-5.59-4.44-11.17-8.9-15.3s-11.14-6.59-17.17-4.93c-5.68,1.55-9.61,6.23-13.16,10.65,0,0-3.99,3.591-3.139,14.273,1.5,18.833-1.153,61.062-3.445,86.278-2.667,29.333,33.663,29.537,53.433,26.747,2.3-1.482,4.742-2.892,6.911-4.438,3.53-2.52,6.43-5.63,6.1-8.92a10.684,10.684,0,0,0-.77-2.71l2.375-1.949c3.087,3.324,6.344,5.5,11.261,4.722a27.342,27.342,0,0,0,7.538-2.786l17.62-8.569c2.763-1.344,5.65-2.791,7.394-5.32a12.483,12.483,0,0,0,1.917-5.42l1.455-4.388c14.94,3.65,48.27-.03,68.86-4.48,22.82-4.93,44.84-5.62,79.28-5.74,19.38-.07,38.81.54,58.11,2.37a240.281,240.281,0,0,1,27.88,4.02c6.96,1.5,15.38,6.48,22.42,5.07.21-.05.42-.11.62-.16a6.658,6.658,0,0,0,3.1-1.88,156.587,156.587,0,0,0,27.978,8.949,24.116,24.116,0,0,0-1.148,3.316,19.19,19.19,0,0,0-.805,6.788c.972,8.78,3.946,17.987,7.317,27.065,2.71,7.3,10.169,14.9,17.89,15.9,0,0,21.375,3.426,30.264-17.018,5.276-12.136-1.833-43.167-7.333-71.334-4.334-25.833.333-55-.5-65.833-.988-12.838-13.332-5.321-13.332-5.321-3.282,3.26-5.811,7.231-9.3,10.266a24.371,24.371,0,0,1-19.068,5.681c-3.939-.549-7.716-2.066-11.676-2.453-10.858-1.087-21.317,7.07-24.879,17.389-3.11,8.986-1.636,19.047,2.475,27.7l2.605,5.168a37.965,37.965,0,0,0-5.092,3.176,17,17,0,0,0-5.172,7.189l-.517-.3a26.7,26.7,0,0,0-12.333-3.5c-1.131,0-6,.5-7.445,2.277l-69.333-10.444a51.428,51.428,0,0,0-9.44-3.417c-3.689-.638-8.235-1.951-11.832-.931-5.929,1.681-12.764,5.961-18.284,9.727"/><path class="b" d="M58.8,208.6c.575-.376,1.139-.758,1.687-1.148,3.526-2.516,6.427-5.624,6.1-8.913-.264-2.629-2.578-5.122-1.041-7.752,4,4.929,7.58,8.811,13.9,7.813a27.342,27.342,0,0,0,7.538-2.786l17.62-8.569c2.763-1.344,5.65-2.791,7.394-5.32,1.915-2.777,2.111-6.351,2.242-9.722l.014-.354,1.111.271c14.946,3.647,48.279-.032,68.87-4.484,22.814-4.932,44.837-5.619,79.272-5.739,19.38-.067,38.816.541,58.115,2.372a239.474,239.474,0,0,1,27.875,4.013c6.961,1.5,15.386,6.487,22.424,5.071l.621-.154a6.521,6.521,0,0,0,3.089-1.885,156.627,156.627,0,0,0,27.986,8.952,24.329,24.329,0,0,0-1.147,3.316,19.19,19.19,0,0,0-.805,6.788c.972,8.78,3.946,17.987,7.317,27.065a27.647,27.647,0,0,0,6.671,9.938c-3.179,11.921-15.67,25.379-24.747,30.041-15.991,8.213-27.712,16.252-53.889,21.223-25.423,4.827-66.39,2.845-122.667-4-29.057-3.535-61.286-14.015-91-20.334-21.134-4.494-73.667-9.666-79.347-24-2.071-5.228.266-11.091,5.531-15.507C52.23,212.53,55.672,210.644,58.8,208.6Z"/><path class="b" d="M88.1,173q-.331-1.011-.7-2.009c-.72-1.948-1.583-3.916-3.346-5.157l7.63-3.545c4.388,4.934,5.381,11.694,6.244,18.124.445,3.318.89,6.7.182,9.99q-3.617,1.752-7.225,3.512A57.7,57.7,0,0,0,88.1,173Z"/><path class="c" d="M53.339,48.141q-.508-.048-1.015-.118c5.917-8.308,14.985-16.854,27.106-20.945A24.075,24.075,0,0,1,68.936,44.214,24.267,24.267,0,0,1,53.339,48.141Z"/><path class="c" d="M109.7,25.763l.123-.061C97.6,23.759,83.829,24.287,76.133,28.794c10.663,3.127,15.813,4.727,20.2,3.125A129.533,129.533,0,0,0,109.7,25.763Z"/><path class="c" d="M99.883,39.7c-4.762-1.212-9.912-.717-16.51,2.27a27.921,27.921,0,0,0-7.255,6.547c-4.187,5.691-7.7,10.731-9.187,17.637,6.956-.614,15.848-5.576,19.5-13.587.3.873.512,1.482.512,1.482A36.246,36.246,0,0,0,92.7,63.836c1.758,2.173,4.764,6.129,8.192,7.183-.071-7.785-1.959-15.2-6.036-24.53a36.161,36.161,0,0,0,14.023-2.54A30.038,30.038,0,0,0,99.883,39.7Z"/><path class="d" d="M8.137,86.007c2.917-3.627,6.04-7.541,10.4-9.479,4.3-1.912,9.245-1.175,13.284,1.034C36.3,80.013,39.4,84.122,41.6,88.646a54.953,54.953,0,0,1,2.692,6.86,29.434,29.434,0,0,0,3.215,7.436c5.946,8.751,17.718,8.461,27.093,8.728,9.354.268,19.99,2.046,25.775,10.294,3.114,4.439,4.677,9.968,5.45,15.278a47.618,47.618,0,0,1-.459,16.449c-.523,2.512,3.332,3.586,3.858,1.063,2.132-10.239,1.25-21.544-3.25-31.052-4.534-9.58-14.151-14.345-24.3-15.57-5.868-.708-11.811-.22-17.673-.927-4.468-.539-9.35-1.923-12.4-5.448-1.694-1.959-2.521-4.5-3.321-6.913A67.878,67.878,0,0,0,45.232,87,28.725,28.725,0,0,0,35.016,74.8c-4.895-3.095-11.213-4.426-16.778-2.435-5.5,1.966-9.372,6.39-12.929,10.813a2.062,2.062,0,0,0,0,2.829,2.014,2.014,0,0,0,2.828,0Z"/><path class="d" d="M375.256,131.4c-3.023-6.44-4.642-13.849-3.56-20.953a25.883,25.883,0,0,1,9.179-16.293,20.551,20.551,0,0,1,16.793-4.57c3.8.722,7.459,2.045,11.341,2.34a25.839,25.839,0,0,0,10.041-1.27,26.542,26.542,0,0,0,10-6.023c3.024-2.907,5.387-6.415,8.34-9.389,1.816-1.829-1.011-4.659-2.828-2.829-2.7,2.721-4.908,5.877-7.576,8.627a22.391,22.391,0,0,1-18.976,6.787c-4.01-.527-7.813-2.041-11.847-2.48-13.589-1.482-25.577,10.039-28.1,22.772-1.706,8.614.049,17.436,3.74,25.3,1.093,2.329,4.542.3,3.454-2.019Z"/><path class="d" d="M63.884,196.354c.881,2.348.9,3.951-.669,5.961a21.643,21.643,0,0,1-5.289,4.467c-3.8,2.506-7.949,4.634-11.208,7.873-4.789,4.759-7.654,12.636-3.316,18.638,2.569,3.556,6.672,5.8,10.6,7.541a105.757,105.757,0,0,0,17.17,5.627c12.875,3.235,26.018,5.263,39.1,7.47,15.919,2.687,31.529,6.69,47.162,10.687,19.276,4.929,38.6,9.819,58.392,12.192,18.082,2.168,36.242,3.74,54.445,4.4,13.054.471,26.114.425,39.169.043,12.4-.363,24.753-.49,36.946-3.01a145.8,145.8,0,0,0,23.9-7.069c6.7-2.638,13.441-5.742,19.21-10.114a108.353,108.353,0,0,0,12.961-12.082A102.806,102.806,0,0,0,414.8,233.832a19.319,19.319,0,0,0,2.784-5.931c.56-2.508-3.295-3.579-3.857-1.063a17.509,17.509,0,0,1-2.78,5.591,76.919,76.919,0,0,1-5.479,7.193,154.054,154.054,0,0,1-13.595,14.194c-10.347,9.5-23.863,14.658-37.24,18.326a125.919,125.919,0,0,1-22.646,4.246c-5.365.453-10.786.474-16.166.657-12.011.41-24.024.645-36.041.422-16.439-.3-32.855-1.385-49.212-3.029-9.786-.983-19.568-2.06-29.251-3.807-9.626-1.737-19.161-3.948-28.655-6.292-17.572-4.337-35.036-9.43-52.837-12.772-12.194-2.288-24.485-4.014-36.645-6.5-6.329-1.293-12.644-2.74-18.817-4.656-4.8-1.488-9.671-3.214-13.9-5.987-4.006-2.629-6.32-6.191-4.693-11.156,2.894-8.83,13.59-11.067,19.487-17.251,3.012-3.159,4.034-6.587,2.481-10.73-.9-2.388-4.764-1.354-3.858,1.063Z"/><path class="d" d="M63.976,192c3.227,3.979,6.819,8.041,12.208,8.668a17.34,17.34,0,0,0,8.755-1.714c3.13-1.341,6.163-2.931,9.225-4.419l9.25-4.5a38.781,38.781,0,0,0,7.923-4.5c4.959-4.074,4.8-10.563,5.026-16.421.125-3.221.63-6.69.066-9.884a7.386,7.386,0,0,0-3.588-5.17,20.84,20.84,0,0,0-6.2-2.032c-1.85-.409-4.167-.716-5.734-1.872s-2.275-3.4-3.4-4.923a7.536,7.536,0,0,0-4.345-3.006,47.1,47.1,0,0,0-10.381-.969c-9.943-.235-19.881.353-29.821.516-2.571.042-2.579,4.043,0,4,8.272-.136,16.537-.548,24.812-.564a111.4,111.4,0,0,1,11.4.4,16.2,16.2,0,0,1,3.369.595,1.8,1.8,0,0,1,.976.5,9.135,9.135,0,0,1,1.784,2.485c1.067,1.8,2.168,3.679,4.072,4.706a22.7,22.7,0,0,0,5.911,1.93,21.053,21.053,0,0,1,5.2,1.506c1.779.928,2.147,2.377,2.15,4.36.006,3.1-.221,6.223-.341,9.325-.1,2.633-.09,5.358-.976,7.876-.855,2.432-2.779,3.98-4.958,5.209-2.6,1.467-5.359,2.68-8.043,3.985l-9.912,4.82c-3.005,1.461-6.117,3.306-9.483,3.762-5.488.744-9.006-3.662-12.113-7.492a2.012,2.012,0,0,0-2.828,0,2.046,2.046,0,0,0,0,2.828Z"/><path class="d" d="M30.463,142.682a38.312,38.312,0,0,1,16.551,9.966c4.246,4.36,8.59,11.218,4.662,17.157a2.015,2.015,0,0,0,1.727,3.01c5.755-.116,9.266,5.425,9.81,10.592.487,4.631-.082,11.4-4.717,13.865-2.274,1.209-.255,4.663,2.019,3.454,6.215-3.3,7.431-11.9,6.59-18.211-.932-6.995-6.052-13.854-13.7-13.7l1.727,3.009c4.7-7.106.645-15.547-4.449-21.116a42.337,42.337,0,0,0-19.155-11.883c-2.473-.733-3.53,3.126-1.063,3.857Z"/><path class="d" d="M77.151,171.239l10.662-4.953,5.134-2.385a13.663,13.663,0,0,1,4.979-1.731c2.564-.11,2.578-4.11,0-4a15.254,15.254,0,0,0-5.813,1.727q-2.767,1.278-5.529,2.568l-11.452,5.321a2.016,2.016,0,0,0-.717,2.736,2.045,2.045,0,0,0,2.736.717Z"/><path class="d" d="M90.963,164.547c2.448,3.394,3.566,7.357,4.289,11.43.755,4.254,1.725,8.992,1.042,13.3a2.064,2.064,0,0,0,1.4,2.461,2.016,2.016,0,0,0,2.46-1.4c.787-4.963-.13-10.107-.97-15.016-.772-4.514-2.053-9.04-4.764-12.8a2.057,2.057,0,0,0-2.736-.717,2.016,2.016,0,0,0-.718,2.736Z"/><path class="d" d="M83.6,168.078a14.376,14.376,0,0,1,2.492,5.212,57.482,57.482,0,0,1,1.754,6.54A56.3,56.3,0,0,1,88.923,193c-.083,2.574,3.917,2.571,4,0A60.835,60.835,0,0,0,91.6,178.309a57.625,57.625,0,0,0-1.96-6.967,17.344,17.344,0,0,0-3.218-6.092c-1.723-1.921-4.544.916-2.829,2.828Z"/><path class="d" d="M49.29,4.552a81.068,81.068,0,0,1,14.528-.376A64.091,64.091,0,0,1,75.253,6.255,155.031,155.031,0,0,1,103.826,17.2c5.472,2.686,10.85,5.557,16.232,8.417,2.272,1.207,4.3-2.245,2.019-3.454C112.422,17.029,102.759,11.882,92.6,7.8,84.014,4.352,74.911,1.373,65.673.35a77.289,77.289,0,0,0-16.383.2,2.058,2.058,0,0,0-2,2,2.014,2.014,0,0,0,2,2Z"/><path class="d" d="M63.987,4.411a45.118,45.118,0,0,1,8.8,11.885,66.6,66.6,0,0,1,4.926,14.217c.615,2.5,4.474,1.44,3.857-1.064a71.18,71.18,0,0,0-5.33-15.172A48.441,48.441,0,0,0,66.815,1.583c-1.84-1.8-4.671,1.023-2.828,2.828Z"/><path class="d" d="M76.991,25.839C66.21,30.055,57.3,37.656,50.6,47.013c-.991,1.384.4,2.838,1.727,3.01A26.275,26.275,0,0,0,80.758,30.868c.674-2.487-3.184-3.549-3.858-1.063A22.342,22.342,0,0,1,52.324,46.023l1.727,3.009C60.1,40.594,68.326,33.5,78.054,29.7a2.06,2.06,0,0,0,1.4-2.46,2.014,2.014,0,0,0-2.46-1.4Z"/><path class="d" d="M80.624,28.918c9.034-3.131,19.345-2.745,28.665-1.287l-.477-3.655c-2.55,1.261-5.078,2.569-7.657,3.771a31.565,31.565,0,0,1-6.8,2.652c-4.01.812-8.747-.95-12.6-2.048-2.48-.708-3.539,3.151-1.063,3.857,4.606,1.314,9.635,2.953,14.473,2.095a31.367,31.367,0,0,0,7.208-2.732c2.858-1.3,5.645-2.75,8.459-4.142,1.458-.721,1.216-3.39-.478-3.655-10.017-1.567-21.068-2.083-30.792,1.287-2.418.838-1.379,4.7,1.063,3.857Z"/><path class="d" d="M93.831,48.441a39.47,39.47,0,0,0,15.579-2.564,2.028,2.028,0,0,0,.478-3.655A31.751,31.751,0,0,0,100.15,37.7a23.445,23.445,0,0,0-10.8.067,36.792,36.792,0,0,0-6.311,2.173,19.215,19.215,0,0,0-4.843,3.43,45.984,45.984,0,0,0-7.64,9.586A38.8,38.8,0,0,0,65,65.621a2.018,2.018,0,0,0,1.928,2.531c8.954-.863,17.845-6.74,21.452-15.095a2.067,2.067,0,0,0-.717-2.737,2.016,2.016,0,0,0-2.737.718,22.7,22.7,0,0,1-18,13.114l1.929,2.532a33.485,33.485,0,0,1,4.081-10,49.512,49.512,0,0,1,6.415-8.887,26.231,26.231,0,0,1,4.037-3.463,18.656,18.656,0,0,1,5.225-2.226A20.141,20.141,0,0,1,98.1,41.35a27.322,27.322,0,0,1,9.769,4.326l.478-3.656a36.487,36.487,0,0,1-14.516,2.421c-2.572-.144-2.564,3.856,0,4Z"/><path class="d" d="M93.424,48.164c3.081,7.3,5.366,14.878,5.468,22.855l2.532-1.929c-2.922-.973-5.044-3.857-6.9-6.161a33.456,33.456,0,0,1-5.653-9.414c-.863-2.405-4.73-1.367-3.857,1.064A39.2,39.2,0,0,0,91.7,65.758c2.364,2.935,4.978,5.961,8.666,7.189a2.015,2.015,0,0,0,2.531-1.928c-.106-8.337-2.389-16.283-5.61-23.918a2.068,2.068,0,0,0-2.461-1.4,2.012,2.012,0,0,0-1.4,2.46Z"/><path class="d" d="M435.37,146.732a17.533,17.533,0,0,0-4.478-14.048c-3.38-3.833-8.449-5.85-13.187-7.416a133.631,133.631,0,0,0-16.778-4.473,15.869,15.869,0,0,0-8.162.141,15.475,15.475,0,0,0-5.22,3.17c-3.136,2.778-5.374,6.415-8.541,9.163a39.761,39.761,0,0,1-6.157,3.868,20.574,20.574,0,0,0-5.723,4.708,22.3,22.3,0,0,0-4.678,12.475c-.323,4.383.339,9.692,3.012,13.319,1.894,2.571,4.529,3.46,7.365,4.639,3,1.248,6,2.5,9.039,3.633a151.053,151.053,0,0,0,18.871,5.766c2.5.578,3.574-3.277,1.063-3.858a145.155,145.155,0,0,1-15.032-4.378c-4.949-1.723-9.736-3.811-14.616-5.706a7.285,7.285,0,0,1-4.388-4.093,18.173,18.173,0,0,1-1.32-5.873,19.989,19.989,0,0,1,2.254-11.157,14.723,14.723,0,0,1,3.763-4.448,57.185,57.185,0,0,1,5.914-3.577c3.508-2.111,6.034-5.061,8.662-8.133,2.251-2.63,4.82-5.569,8.452-6.076,2.546-.355,5.208.417,7.666.981q3.877.891,7.7,1.993c5.131,1.47,10.569,2.937,14.961,6.094,3.694,2.655,6.337,7.616,5.7,12.223a2.07,2.07,0,0,0,1.4,2.46,2.013,2.013,0,0,0,2.46-1.4Z"/><path class="d" d="M111.757,155.777c3.9-4.512,9.634-7.717,15.17-9.757a25.865,25.865,0,0,1,8.411-1.861,8.088,8.088,0,0,1,4.484.892,15.908,15.908,0,0,1,3.944,4.051,2.058,2.058,0,0,0,2.736.717,2.014,2.014,0,0,0,.718-2.736,23.507,23.507,0,0,0-4.733-5.027,10.674,10.674,0,0,0-6.034-1.873,25.832,25.832,0,0,0-9.578,1.622c-6.518,2.211-13.388,5.868-17.946,11.143-1.676,1.939,1.142,4.781,2.828,2.829Z"/><path class="d" d="M114.841,174.041c6.208,1.492,12.759,1.629,19.112,1.544a234.477,234.477,0,0,0,24.08-1.7c7.857-.917,15.692-2.1,23.45-3.645,7-1.4,13.961-2.823,21.051-3.714,16.369-2.058,32.91-2.406,49.388-2.564,21.117-.2,42.232.028,63.292,1.735a273.861,273.861,0,0,1,31.047,3.952,97.241,97.241,0,0,1,12.674,3.779c3.989,1.366,8.255,2.589,12.508,2.012a9.362,9.362,0,0,0,5.614-2.715c1.783-1.858-1.042-4.691-2.828-2.829-2.769,2.886-7.839,1.61-11.189.645-4.074-1.174-7.966-2.936-12.081-3.972-9.789-2.464-20.076-3.447-30.105-4.381-20.91-1.947-41.9-2.4-62.886-2.272-16.9.1-33.867.283-50.692,2.062-7.108.751-14.188,1.8-21.193,3.224-7.265,1.48-14.518,2.874-21.865,3.895-8,1.112-16.053,1.917-24.12,2.3a108.667,108.667,0,0,1-20.412-.494c-1.271-.182-2.533-.418-3.781-.718-2.5-.6-3.569,3.255-1.064,3.857Z"/><path class="d" d="M277.251,134.239a46.813,46.813,0,0,0-9.918-3.618c-3.658-.708-7.471-1.726-11.218-1.248-3.664.467-7.272,2.343-10.487,4.072a112.577,112.577,0,0,0-9.951,6.173c-2.116,1.44-.117,4.908,2.019,3.454,2.985-2.033,6.02-4,9.181-5.752,2.883-1.6,6.1-3.367,9.382-3.952s6.815.491,10.011,1.11a42.123,42.123,0,0,1,8.962,3.215,2.063,2.063,0,0,0,2.737-.718,2.015,2.015,0,0,0-.718-2.736Z"/><path class="d" d="M240.362,143.607c-3.265-2.39-6.167-5.529-9.757-7.439-4.573-2.434-10.087-2.544-15.141-2.647-2.575-.052-2.575,3.948,0,4a53.923,53.923,0,0,1,8.536.638,20.256,20.256,0,0,1,2.863.719,8.8,8.8,0,0,1,2.043.919,22.031,22.031,0,0,1,3.755,2.756c1.857,1.552,3.729,3.078,5.683,4.508a2.015,2.015,0,0,0,2.736-.717,2.046,2.046,0,0,0-.718-2.737Z"/><path class="d" d="M434.808,143.979a74.757,74.757,0,0,1-10.5,7.458c-1.863,1.2-3.7,2.432-5.455,3.784a21.068,21.068,0,0,0-3.173,2.725,117.406,117.406,0,0,0-8.847,12.405c-3.725,5.659-7.559,12.323-7.214,19.333a65.7,65.7,0,0,0,2.752,14.174c1.332,4.768,2.93,9.476,4.687,14.1,3.054,8.044,10.417,16.031,19.287,17.3a2.068,2.068,0,0,0,2.46-1.4,2.015,2.015,0,0,0-1.4-2.461c-7.23-1.03-13.306-7.176-16.151-13.65a110.569,110.569,0,0,1-4.43-12.88,86.842,86.842,0,0,1-3.028-13.427c-.886-6.714,2.476-12.906,6.014-18.351,1.569-2.415,3.2-4.787,4.872-7.135q1.063-1.5,2.151-2.98.425-.577.856-1.152c.122-.163.245-.324.368-.486a1.828,1.828,0,0,1,.173-.224c2.046-2.549,5.2-4.363,7.916-6.11,3.963-2.55,8-5,11.488-8.2,1.9-1.745-.935-4.568-2.828-2.828Z"/><path class="d" d="M423.806,169.924a163.842,163.842,0,0,1,6.893,25.829c.458,2.529,4.314,1.457,3.857-1.064a163.859,163.859,0,0,0-6.893-25.828c-.859-2.408-4.725-1.37-3.857,1.063Z"/><path class="d" d="M93.777,205.176a16.768,16.768,0,0,0,14.48-5.553,2.05,2.05,0,0,0,0-2.829,2.018,2.018,0,0,0-2.828,0,14.721,14.721,0,0,1-1.179,1.217q-.332.3-.68.584c.163-.133.01,0-.069.053q-.2.147-.406.289a14.8,14.8,0,0,1-1.448.878q-.4.212-.805.4c-.031.014-.372.162-.219.1s-.33.125-.317.121a15.247,15.247,0,0,1-1.62.5q-.435.108-.877.191c-.13.025-.261.046-.393.068s-.279.037-.06.011a14.578,14.578,0,0,1-3.579-.028,2,2,0,0,0-2,2,2.063,2.063,0,0,0,2,2Z"/><path class="d" d="M110.464,195.077c2.574,0,2.578-4,0-4s-2.578,4,0,4Z"/><path class="d" d="M366.362,145.906a26.986,26.986,0,0,0-13.342-3.773c-2.826.029-6.895.619-8.859,2.863a2.05,2.05,0,0,0,0,2.829,2.019,2.019,0,0,0,2.828,0,2.573,2.573,0,0,1,1.179-.778,13.932,13.932,0,0,1,2.009-.564,11.929,11.929,0,0,1,3.149-.348,23.383,23.383,0,0,1,11.018,3.224c2.23,1.3,4.246-2.16,2.018-3.453Z"/><path class="d" d="M340.885,259.061c13.23-2.281,26.605-6.4,36.766-15.561a51.535,51.535,0,0,0,6.985-7.828,2.014,2.014,0,0,0-.718-2.736,2.046,2.046,0,0,0-2.736.718c-7.181,9.773-17.755,15.6-29.25,18.86a117.307,117.307,0,0,1-12.111,2.69,2.017,2.017,0,0,0-1.4,2.46,2.047,2.047,0,0,0,2.461,1.4Z"/><path class="a" d="M266.382,59.857c-.071.086-.14.172-.2.258-.136-2.577-2.957-5.671-6-6.283s-7.533.418-8.674,3.324l-1.4,1.977a12.976,12.976,0,0,0-4.26,1.689q-.486.3-.947.641a13,13,0,0,0-3.8,4.419l-.029.167a8.8,8.8,0,0,0-2.191,8.512,6.6,6.6,0,0,0,6.247,5.072c-2.035-.219-3.842,1.563-4.287,3.56-.57,2.563-.032,6.747,6.245,9.318,3.259,1.334,8.357,1.018,11.326-.932a34.8,34.8,0,0,0,24.421-.078l3.6-1.379s.115-.044.321-.12a12.253,12.253,0,0,0-4.9-21.338c2.545-2.948-.049-8.416-3.322-10.528A9.628,9.628,0,0,0,266.382,59.857Z"/><path class="d" d="M285.372,93.316a14.283,14.283,0,0,0-2.983-26.58l.882,3.342c3.5-4.366.629-10.625-3.476-13.5-4.5-3.156-11.591-2.23-15.033,2.123l3.415,1.414c-.4-4.367-4.3-7.882-8.562-8.377-3.548-.412-8.281.845-9.834,4.408a2.066,2.066,0,0,0,.718,2.737,2.014,2.014,0,0,0,2.736-.718c.925-2.122,3.688-2.646,5.787-2.483,2.164.167,4.943,2.088,5.155,4.433.136,1.507,2.227,2.915,3.414,1.414a7.624,7.624,0,0,1,9.577-1.886,8.038,8.038,0,0,1,3.164,3.69c.49,1.1.961,2.856.111,3.917a2.028,2.028,0,0,0,.882,3.343,10.274,10.274,0,0,1,2.028,19.269c-2.289,1.179-.268,4.632,2.019,3.454Z"/><path class="d" d="M239.661,64.635A11.024,11.024,0,0,0,237,75.262a8.681,8.681,0,0,0,8.132,6.371c2.584.075,2.558-3.862,0-4-3.575-.194-6.061,2.968-6.407,6.263a9.029,9.029,0,0,0,2.11,6.681c4.281,5.2,13.178,6.314,18.748,2.622,2.136-1.415.135-4.881-2.019-3.454A11.115,11.115,0,0,1,244.452,88.6a5.933,5.933,0,0,1-1.432-1.985,4.888,4.888,0,0,1-.345-1.659,3.031,3.031,0,0,1,.295-1.89,2.224,2.224,0,0,1,2.161-1.437v-4c-5.2-.152-5.6-7.188-2.642-10.169,1.817-1.828-1.01-4.658-2.828-2.829Z"/><path class="a" d="M340.1,193.129l-5.857-20.385-7.8.7a37.786,37.786,0,0,0,8.018-11.4,27.817,27.817,0,0,0,1.252-3.4l.35.058a4.716,4.716,0,0,0,3.64-1.05,12.943,12.943,0,0,0,3.8-6.161c.814-2.4.866-6.275-.347-8.378A3.772,3.772,0,0,0,340.8,141.3l.114-.46a34.244,34.244,0,0,0,1.192-10.336c-.531-12.568-6.689-20.518-12.814-25.143a32.548,32.548,0,0,0-20.279-6.773,32.133,32.133,0,0,0-19.538,6.234,32.825,32.825,0,0,0-13.553,25.682,35.839,35.839,0,0,0,1.211,10.336l.128.5a3.757,3.757,0,0,0-2.231,1.77c-1.213,2.1-1.162,5.98-.348,8.378a12.946,12.946,0,0,0,3.8,6.161,4.624,4.624,0,0,0,3.938.985,32.585,32.585,0,0,0,6.18,11.661,26.733,26.733,0,0,0,6.4,5.749c-.006.075-.017.143-.022.218l-.035,0a36.369,36.369,0,0,1-.493,3.808,17.735,17.735,0,0,1-.417,2.206,3.468,3.468,0,0,1-2.363,2.133c-.1.035-2.892,1.339-5.334,2.462l.3,0-.379.175,0-.009c-1.73.67-5.64,2.891-8.87,4.51a23.743,23.743,0,0,0-11.5,15.581c13.914,1.944,23.47,2.611,35.914,1.388,11.472-1.126,21.111-3.044,26.867-.928-2.011,5.959,7.036,4.265,16.568,2.821C343.839,204.831,341.777,198.53,340.1,193.129Z"/><path class="e" d="M342.1,130.508a32.466,32.466,0,0,0-8.062-20.752l.643.313a1.173,1.173,0,0,0,.181-.035c2.01-.412,4.128-1.726,4.3-3.758a6.566,6.566,0,0,0-.738-3.421c-2.731-5.066-6.613-9.658-11.844-12.05a9.081,9.081,0,0,0-4.76-.857,6.346,6.346,0,0,0-4.4,2.125,6.793,6.793,0,0,0-1.669,3.355,18.2,18.2,0,0,0-.372,3.73,35.186,35.186,0,0,0-6.369-.566,32.133,32.133,0,0,0-19.538,6.234,32.942,32.942,0,0,0-12.135,17.042,35.233,35.233,0,0,0-1.418,8.64,36.141,36.141,0,0,0,1.342,10.829,5.193,5.193,0,0,1,1.336-.212,4.457,4.457,0,0,1,2.2.493c15.753-2.822,30.338-11.285,40.9-19.955a46,46,0,0,0,4.3,10.924c1.61,2.756,6.249,9.09,10.358,9.815a4.2,4.2,0,0,1,3.223-1.277,5.291,5.291,0,0,1,1.215.177A34.891,34.891,0,0,0,342.1,130.508Z"/><path class="d" d="M317.383,99.163c-.018-2.9.578-6.379,3.888-7.114,3.186-.707,6.4,1.293,8.732,3.27a28.205,28.205,0,0,1,6.049,7.4c.595,1.019,1.491,2.45,1.052,3.691-.4,1.119-1.942,1.512-2.953,1.737-2.511.558-1.448,4.415,1.064,3.857,3.133-.7,6.116-2.9,5.959-6.412-.152-3.436-2.56-6.588-4.611-9.19-4.031-5.113-11.374-10.816-18.174-7.548-3.91,1.878-5.031,6.322-5.006,10.312.016,2.573,4.016,2.578,4,0Z"/><path class="d" d="M287.26,188.778q2.162-.994,4.318-2c.334-.155.675-.3,1.005-.461-.991.485-.081.044.124-.042.231-.1.461-.194.682-.313a6.022,6.022,0,0,0,1.106-.788,5.824,5.824,0,0,0,1.726-3.592c.275-1.77.582-3.533.718-5.321a2.009,2.009,0,0,0-2-2,2.049,2.049,0,0,0-2,2c-.036.47-.079.94-.134,1.409-.009.075-.084.638-.03.257-.028.2-.058.4-.088.6-.1.666-.219,1.33-.323,2-.039.253-.081.507-.137.757a6.732,6.732,0,0,0-.209.71c.044-.435.124-.273.011-.068-.034.062-.315.46-.1.183s-.126.111-.169.159c-.25.278.349-.209-.013.019-.126.08-.248.159-.379.23s-.436.212-.128.076c-.258.114-.525.209-.782.325-.381.17-.758.348-1.137.523q-2.04.945-4.082,1.888a2.009,2.009,0,0,0-.718,2.736,2.058,2.058,0,0,0,2.737.718Z"/><path class="d" d="M320.908,176.484a49.487,49.487,0,0,0,.8,5.722,5.446,5.446,0,0,0,3.084,3.935,7.4,7.4,0,0,0,.9.37c-.726-.218-.556-.244-.369-.154.153.074.308.143.462.214q.816.381,1.63.766,2.085.984,4.169,1.971a2.046,2.046,0,0,0,2.737-.717,2.025,2.025,0,0,0-.718-2.736c-2.114-1-4.214-2.043-6.352-2.992-.219-.1-.45-.177-.669-.275.4.18-.206-.119-.275-.16s-.127-.077-.189-.119q-.186-.126.121.106c-.127-.033-.282-.267-.374-.357-.241-.237.231.382-.036-.08a2.883,2.883,0,0,0-.157-.309c.124.3.149.353.076.154q-.037-.109-.069-.222c-.038-.132-.069-.266-.1-.4-.132-.618-.2-1.249-.308-1.872-.188-1.13-.254-1.637-.358-2.845a2,2,0,0,0-4,0Z"/><path class="d" d="M283.106,140.844a6.674,6.674,0,0,0-7.275-1.082,6.342,6.342,0,0,0-3.314,4.264,15.808,15.808,0,0,0,2.291,12.475c1.626,2.419,4.2,4.6,7.309,4.2a2.065,2.065,0,0,0,2-2,2.012,2.012,0,0,0-2-2c-2.136.278-3.524-1.492-4.45-3.2a12.776,12.776,0,0,1-1.526-4.736,8.136,8.136,0,0,1,.81-4.954c-.33.533.51-.43.189-.2a1.743,1.743,0,0,1,.9-.411,2.423,2.423,0,0,1,2.239.475,2.046,2.046,0,0,0,2.828,0,2.02,2.02,0,0,0,0-2.829Z"/><path class="d" d="M337.9,143.673a2.4,2.4,0,0,1,2.114-.5,1.84,1.84,0,0,1,1.023.438c-.313-.228.51.714.19.2a8.113,8.113,0,0,1,.809,4.954,12.836,12.836,0,0,1-1.525,4.736c-.927,1.71-2.313,3.48-4.45,3.2a2.01,2.01,0,0,0-2,2,2.049,2.049,0,0,0,2,2c5.058.657,8.17-4.8,9.435-8.888,1.136-3.677,1.072-9.358-2.52-11.708a6.636,6.636,0,0,0-7.9.742,2,2,0,0,0,2.829,2.829Z"/><path class="d" d="M334.3,156.1a27.706,27.706,0,0,1-1.248,4.159c-.192.506-.311.734-.556,1.343-.2.5.147-.3-.025.06-.06.125-.116.253-.176.379a35.4,35.4,0,0,1-3.047,5.071c-2.643,3.745-6.266,7.829-10.889,8.916-2.505.588-1.445,4.446,1.063,3.857,5.528-1.3,9.78-5.912,12.982-10.338a36.306,36.306,0,0,0,3.312-5.42c.2-.414.379-.837.557-1.261.213-.51-.168.362.068-.156.152-.334.289-.676.424-1.017a27.63,27.63,0,0,0,1.392-4.53c.524-2.512-3.331-3.586-3.857-1.063Z"/><path class="d" d="M279.942,157.063c2.37,10.394,10.2,21.728,21.432,23.422a2.065,2.065,0,0,0,2.46-1.4,2.014,2.014,0,0,0-1.4-2.46c-9.941-1.5-16.546-11.456-18.638-20.629-.572-2.508-4.43-1.447-3.857,1.064Z"/><path class="d" d="M279.057,140.312a32.455,32.455,0,0,1,2.778-23.969A31.6,31.6,0,0,1,295.521,103.5c13.619-6.559,31.138-1.841,39.488,10.753,5.119,7.72,6.133,17.178,3.972,26.057-.608,2.5,3.248,3.568,3.858,1.064,2.2-9.025,1.5-18.58-2.985-26.83a34.885,34.885,0,0,0-16.013-14.778,36.258,36.258,0,0,0-26.809-1.2,35.435,35.435,0,0,0-17.347,13.636c-5.745,8.562-6.991,19.286-4.485,29.168.632,2.493,4.491,1.437,3.857-1.064Z"/><path class="d" d="M304.163,165.919a11.8,11.8,0,0,0,5.681,1.326,9.374,9.374,0,0,0,5.852-1.776,2,2,0,0,0,.586-1.415,2.036,2.036,0,0,0-.586-1.414,2.062,2.062,0,0,0-2.828,0c.693-.54-.007-.024-.225.091-.169.088-.615.228.022.009-.154.053-.3.117-.458.167-.419.134-.87.161-1.284.293.211-.067.341-.041.039-.011-.126.012-.252.023-.379.031-.3.02-.608.027-.912.025-.272,0-.545-.01-.816-.029-.125-.008-.25-.018-.375-.031q-.107-.011-.213-.024-.235-.029.193.026c-.013-.05-1.07-.228-1.2-.266-.168-.05-.331-.111-.5-.167-.443-.152.429.2.027.015q-.307-.146-.609-.3a2,2,0,1,0-2.019,3.454Z"/><path class="d" d="M307.833,151.829c-.225.858-.427,1.726-.575,2.6a3.71,3.71,0,0,0-.013,1.641,2.431,2.431,0,0,0,1.279,1.573,3.39,3.39,0,0,0,1.622.4c.352-.015.688-.1,1.034-.148a2,2,0,0,0,1.195-.919,2,2,0,0,0-.717-2.737l-.478-.2a2.018,2.018,0,0,0-1.063,0c-.129.017-.255.048-.383.066l.531-.071a1.432,1.432,0,0,1-.34,0l.532.072a1.59,1.59,0,0,1-.363-.106l.478.2a1.836,1.836,0,0,1-.215-.114l.4.313a.57.57,0,0,1-.089-.088l.312.405a.637.637,0,0,1-.059-.109l.2.478a.889.889,0,0,1-.042-.169l.072.532a1.624,1.624,0,0,1,.01-.375l-.071.532a25.249,25.249,0,0,1,.593-2.717,2.081,2.081,0,0,0-.2-1.541,2,2,0,0,0-2.737-.717,2.065,2.065,0,0,0-.919,1.2Z"/><path class="d" d="M296.792,149.047a14.232,14.232,0,0,1,2.405-.534l-.531.072c.2-.027.406-.05.61-.071a2.222,2.222,0,0,0,1.414-.585,2,2,0,0,0,0-2.829,1.95,1.95,0,0,0-1.414-.586,17.24,17.24,0,0,0-3.547.676,2.1,2.1,0,0,0-1.195.919,2,2,0,0,0,.717,2.737,2.021,2.021,0,0,0,1.541.2Z"/><path class="d" d="M319.852,148.533a7.824,7.824,0,0,1,1.491.053l-.532-.072a7.736,7.736,0,0,1,1.732.451,1.515,1.515,0,0,0,.8.035,1.486,1.486,0,0,0,.743-.237,2,2,0,0,0,.718-2.736l-.313-.4a2,2,0,0,0-.882-.514,7.579,7.579,0,0,0-1.614-.434,10.116,10.116,0,0,0-2.141-.141,2.116,2.116,0,0,0-1.415.586,2,2,0,0,0,0,2.828,1.993,1.993,0,0,0,1.415.586Z"/><path class="d" d="M320.185,123.875a40.647,40.647,0,0,0,5.472,11.851c2.415,3.413,5.719,7.581,10.011,8.575,2.5.579,3.575-3.277,1.064-3.858a5.881,5.881,0,0,1-2.156-.989,14.353,14.353,0,0,1-2.063-1.73,29.531,29.531,0,0,1-3.659-4.386,37.285,37.285,0,0,1-4.812-10.526c-.73-2.463-4.591-1.414-3.857,1.063Z"/><path class="d" d="M318.963,121.316c-10.65,8.423-23.066,15.008-36.385,17.919-2.514.549-1.45,4.406,1.063,3.857,14.021-3.064,26.956-10.095,38.151-18.947a2.013,2.013,0,0,0,0-2.829,2.051,2.051,0,0,0-2.829,0Z"/><path class="d" d="M302.924,125.568c-.059.16-.119.319-.182.478-.019.047-.2.479-.094.235s-.084.184-.105.229q-.107.234-.218.463-.393.806-.855,1.574t-.987,1.494q-.15.207-.306.411c.171-.225.049-.066-.056.065q-.3.364-.607.716a21.666,21.666,0,0,1-2.594,2.465c-.439.356.32-.229-.136.1-.114.083-.228.168-.344.251q-.382.272-.776.527c-.526.34-1.068.652-1.622.943a2.015,2.015,0,0,0-.718,2.736,2.046,2.046,0,0,0,2.737.717,22.912,22.912,0,0,0,10.72-12.346,2.01,2.01,0,0,0-1.4-2.46,2.053,2.053,0,0,0-2.46,1.4Z"/><path class="d" d="M267.812,207.664a24.114,24.114,0,0,1,2.6-6.657,23.014,23.014,0,0,1,4.806-5.572,32.8,32.8,0,0,1,6.124-3.686c1.045-.552,2.086-1.109,3.136-1.651.484-.251.969-.5,1.46-.736q.31-.151.624-.295c.387-.178-.151.052.219-.1a2.063,2.063,0,0,0,1.4-2.46,2.015,2.015,0,0,0-2.461-1.4,65.579,65.579,0,0,0-6.245,3.1,37.847,37.847,0,0,0-7.082,4.391,26.52,26.52,0,0,0-8.44,13.994c-.635,2.5,3.222,3.56,3.858,1.063Z"/><path class="d" d="M263.821,208.728c8.579,2.484,17.663,2.909,26.542,2.59,9.008-.323,17.883-1.751,26.854-2.464,3.533-.281,7.3-.543,10.715.6,2.448.816,3.5-3.045,1.064-3.857a26.191,26.191,0,0,0-9.514-.888c-4.253.208-8.483.792-12.709,1.279a157.845,157.845,0,0,1-27.481,1.241,65.8,65.8,0,0,1-14.407-2.354c-2.478-.718-3.535,3.141-1.064,3.857Z"/><path class="d" d="M338.171,193.661c1.745,5.612,3.583,11.2,5.035,16.9.636,2.493,4.5,1.436,3.857-1.063-1.452-5.7-3.29-11.287-5.035-16.9-.762-2.451-4.624-1.405-3.857,1.063Z"/><path class="d" d="M327.736,196.188c.243,4.882-.007,9.782-.037,14.667-.016,2.574,3.984,2.577,4,0,.03-4.885.28-9.785.037-14.667a2.043,2.043,0,0,0-2-2,2.019,2.019,0,0,0-2,2Z"/><path class="a" d="M344.031,185.567,338.272,170.5a34.36,34.36,0,0,0-2.261-5.076,17.251,17.251,0,0,0-5.318-5.654,3.089,3.089,0,0,0-1.776-.668c-1.5.065-2.159,1.894-2.435,3.372l-5.3,28.34c-.239,1.276-.364,2.857.695,3.609a6.58,6.58,0,0,0,2.257.618c2.185.571,3.56,3.085,5.805,3.329a5.224,5.224,0,0,0,3.894-1.7,17.056,17.056,0,0,1,3.32-2.838c2.617-1.379,6.063-.224,7.66-2.714C345.4,190.2,344.614,187.269,344.031,185.567Z"/><path class="d" d="M345.959,185.035l-4.624-12.1c-1.456-3.81-2.72-7.743-5.3-10.967-1.9-2.371-5.75-6.321-9.042-4.284a6.079,6.079,0,0,0-2.377,3.957c-.452,2.037-.773,4.112-1.157,6.163l-2.422,12.948-1.234,6.6a20.866,20.866,0,0,0-.759,5.464,4.158,4.158,0,0,0,3.194,3.9,8.476,8.476,0,0,1,1.92.485,10.692,10.692,0,0,1,1.7,1.251,7.149,7.149,0,0,0,4.476,1.94,7.652,7.652,0,0,0,4.915-2.3c1.405-1.275,2.4-2.575,4.348-2.949,1.645-.317,3.336-.276,4.858-1.072,3.606-1.886,2.564-5.876,1.507-9.025-.814-2.428-4.679-1.387-3.857,1.064a17.237,17.237,0,0,1,.877,3.347,2.684,2.684,0,0,1,.037.721c-.056.322.044-.027.068-.061a1.725,1.725,0,0,1-1.017.612,34.356,34.356,0,0,1-3.536.557,8.526,8.526,0,0,0-3.785,1.793c-1.011.811-1.819,1.871-2.865,2.636a2.279,2.279,0,0,1-3.214-.1,20.871,20.871,0,0,0-2.634-1.944,6.766,6.766,0,0,0-1.756-.636c-.289-.061-.931-.033-1.17-.216.02.015-.044.123-.088-.269a15.063,15.063,0,0,1,.638-4.13l1.006-5.375,2.01-10.749,1.006-5.375a44.874,44.874,0,0,1,.946-4.821,2.313,2.313,0,0,1,.468-1c-.074.068-.342-.146.041.06.187.1.372.228.549.346a14.829,14.829,0,0,1,3.52,3.3c2.211,2.874,3.259,6.544,4.536,9.886L342.1,186.1a2.057,2.057,0,0,0,2.46,1.4A2.014,2.014,0,0,0,345.959,185.035Z"/><path class="d" d="M326.48,210.053c.681,3.647,5.268,3.854,8.176,3.711,4.794-.236,9.531-1.25,14.28-1.881a2.067,2.067,0,0,0,2-2c0-.97-.921-2.144-2-2-4.288.57-8.555,1.406-12.867,1.783-.863.075-1.729.129-2.6.132-.362,0-.724-.007-1.085-.029-.186-.011-.372-.024-.558-.044-.346-.037,0,.006-.188-.03-.278-.054-.547-.128-.82-.2-.5-.131.17.108-.068-.015-.116-.06-.227-.125-.34-.188-.3-.167.092.155.007,0s-.331-.165.007.028c-.174-.1.009-.121.017.1a3.777,3.777,0,0,0-.108-.428,2.019,2.019,0,0,0-2.461-1.4,2.043,2.043,0,0,0-1.4,2.46Z"/><path class="a" d="M223.4,197.236c-4.9-3.185-12.949-6.527-18.694-8.934-2.33-1.1-5.56-2.629-5.672-2.669-2.68-.971-2.579-2.692-2.915-4.622-.214-1.252-.382-2.5-.481-3.751,6.21-3.838,11.027-12.179,11.934-14.641a28.53,28.53,0,0,0,1.288-3.5l.36.061a4.853,4.853,0,0,0,3.743-1.081,13.307,13.307,0,0,0,3.908-6.337c.837-2.467.89-6.454-.358-8.618a3.879,3.879,0,0,0-2.42-1.855l.117-.474a35.235,35.235,0,0,0,1.226-10.632c-.546-12.926-6.88-21.1-13.181-25.861A33.476,33.476,0,0,0,181.4,97.359a33.049,33.049,0,0,0-20.1,6.413,33.759,33.759,0,0,0-13.94,26.415,36.856,36.856,0,0,0,1.245,10.632l.132.509a3.872,3.872,0,0,0-2.3,1.82c-1.248,2.164-1.195,6.151-.358,8.618A13.315,13.315,0,0,0,150,158.1a4.762,4.762,0,0,0,4.05,1.014A33.5,33.5,0,0,0,160.4,171.11a27.5,27.5,0,0,0,6.583,5.914,37.25,37.25,0,0,1-.511,3.987c-.34,1.928-.232,3.651-2.913,4.62-.1.034-2.645,1.223-5.037,2.325h-.192c-5.78,2.43-14.38,5.94-19.51,9.28a21.265,21.265,0,0,0-7.112,7.616,40.877,40.877,0,0,0-3.963,10.174c14.964,2.9,29.048-.75,41.605-1.06,23.752-.588,46.167,3.667,64.1-2.45C231.573,205.9,228.573,200.446,223.4,197.236Z"/><path class="e" d="M177.881,97.521q1.719-.16,3.519-.162a33.471,33.471,0,0,1,20.858,6.968c6.3,4.757,12.635,12.934,13.181,25.86a35.948,35.948,0,0,1-1.343,11.1,5.431,5.431,0,0,0-1.252-.183,4.4,4.4,0,0,0-3.184,1.166l-4.47-3.541c-1.443-3.631-4.7-7.643-8.1-10.568a18.067,18.067,0,0,0-5.157-3.243,23.8,23.8,0,0,0-5.249-.836l-.35.148c-3.776,1.591-9.1,4.932-12.089,6.592a1.022,1.022,0,0,1-1.458-1.1,5.406,5.406,0,0,0-.129-1.964c-.2-.821-.829-1.169-1.32-.912-4.186,2.2-10.152,7.873-13.532,11.639l-4.5,3.782a4.4,4.4,0,0,0-3.184-1.166,5.381,5.381,0,0,0-1.374.218,37.159,37.159,0,0,1-1.38-11.139,33.759,33.759,0,0,1,13.94-26.415A32.46,32.46,0,0,1,177.881,97.521Z"/><path class="d" d="M159.085,189.89q2.215-1.02,4.426-2.047c.342-.158.691-.306,1.029-.472-.99.487-.072.041.134-.046.234-.1.468-.2.692-.317a6.1,6.1,0,0,0,1.124-.8,5.929,5.929,0,0,0,1.757-3.658c.281-1.811.594-3.613.734-5.441a2.01,2.01,0,0,0-2-2,2.048,2.048,0,0,0-2,2c-.037.482-.082.963-.138,1.444-.008.07-.083.64-.033.277q-.042.306-.09.61c-.106.683-.224,1.363-.33,2.046-.041.26-.083.519-.141.776a5.2,5.2,0,0,0-.215.728c.131-.3.152-.352.061-.161l-.054.1c-.033.061-.319.464-.1.192s-.136.121-.178.168c-.252.281.342-.2-.023.028-.129.081-.254.162-.389.235-.113.062-.45.219-.142.083-.26.115-.53.211-.79.328-.39.175-.777.357-1.165.536q-2.091.969-4.184,1.935a2.008,2.008,0,0,0-.717,2.736,2.056,2.056,0,0,0,2.736.718Z"/><path class="d" d="M193.646,177.334a50.61,50.61,0,0,0,.814,5.85,5.534,5.534,0,0,0,3.138,4,6.732,6.732,0,0,0,.907.375c-.712-.206-.557-.244-.366-.153.156.076.315.146.472.22q.837.39,1.671.785,2.137,1.008,4.273,2.02a2,2,0,1,0,2.019-3.454c-2.166-1.026-4.319-2.094-6.51-3.066-.221-.1-.453-.178-.674-.276.387.172-.227-.13-.293-.169-.1-.061-.451-.352-.08-.022-.133-.118-.256-.241-.383-.365-.241-.237.223.371-.045-.092a1.977,1.977,0,0,0-.162-.318c.123.3.147.346.074.147-.026-.075-.049-.151-.071-.228-.039-.135-.071-.272-.1-.41-.136-.633-.21-1.28-.316-1.918-.048-.288-.094-.576-.136-.864-.009-.058-.089-.643-.049-.333-.075-.576-.134-1.153-.183-1.732a2,2,0,0,0-4,0Z"/><path class="d" d="M154.717,140.86a6.8,6.8,0,0,0-7.414-1.105,6.469,6.469,0,0,0-3.382,4.352,16.2,16.2,0,0,0,2.35,12.787c1.662,2.473,4.288,4.7,7.469,4.29a2.066,2.066,0,0,0,2-2,2.012,2.012,0,0,0-2-2c-2.218.287-3.665-1.548-4.627-3.322a13.04,13.04,0,0,1-1.577-4.9,12.126,12.126,0,0,1,.075-3.058,5.116,5.116,0,0,1,.766-2.066c-.323.515.512-.442.215-.224a1.91,1.91,0,0,1,.938-.428,2.584,2.584,0,0,1,2.358.5c1.916,1.709,4.754-1.11,2.829-2.828Z"/><path class="d" d="M211.074,143.688a2.556,2.556,0,0,1,2.23-.531,2.022,2.022,0,0,1,1.066.456c-.293-.214.53.726.215.224a5.111,5.111,0,0,1,.766,2.066,11.987,11.987,0,0,1,.075,3.058,13.07,13.07,0,0,1-1.577,4.9c-.961,1.773-2.408,3.609-4.626,3.322a2.009,2.009,0,0,0-2,2,2.051,2.051,0,0,0,2,2c5.176.671,8.356-4.917,9.649-9.1,1.161-3.756,1.106-9.575-2.565-11.978a6.768,6.768,0,0,0-8.062.755c-1.924,1.717.913,4.538,2.829,2.828Z"/><path class="d" d="M207.467,156.523a28.44,28.44,0,0,1-1.284,4.278c-.193.507-.336.8-.572,1.382-.2.5.141-.286-.031.074-.062.129-.12.261-.182.39a36.386,36.386,0,0,1-3.134,5.217c-2.722,3.858-6.448,8.071-11.234,9.2-2.5.589-1.445,4.446,1.063,3.857,5.671-1.333,10.034-6.067,13.319-10.607a37.245,37.245,0,0,0,3.407-5.575c.2-.422.386-.851.567-1.283.215-.515-.162.349.075-.174.154-.339.294-.687.431-1.033a28.434,28.434,0,0,0,1.432-4.659c.524-2.512-3.331-3.586-3.857-1.063Z"/><path class="d" d="M151.558,157.486c2.434,10.674,10.468,22.311,22,24.051a2.064,2.064,0,0,0,2.46-1.4,2.015,2.015,0,0,0-1.4-2.461c-10.243-1.545-17.055-11.805-19.21-21.258-.572-2.508-4.43-1.447-3.857,1.064Z"/><path class="d" d="M201.206,101.155a37.1,37.1,0,0,0-34.892-2.636,36.068,36.068,0,0,0-19.231,21.637,38.4,38.4,0,0,0-.4,21.195c.633,2.493,4.492,1.436,3.857-1.064-2.588-10.195-.751-21.292,6.136-29.441a32.517,32.517,0,0,1,42.514-6.237c2.168,1.4,4.176-2.059,2.019-3.454Z"/><path class="d" d="M216.141,141.351a39.176,39.176,0,0,0-.61-21.9A34.771,34.771,0,0,0,206,104.833c-1.9-1.731-4.736,1.09-2.829,2.829a30.654,30.654,0,0,1,8.508,12.85,35.182,35.182,0,0,1,.61,19.775c-.609,2.5,3.247,3.567,3.857,1.064Z"/><path class="d" d="M176.444,166.561a12.088,12.088,0,0,0,5.815,1.357,9.585,9.585,0,0,0,5.979-1.811,2,2,0,0,0,0-2.829,2.064,2.064,0,0,0-2.829,0c.692-.538-.024-.012-.242.1-.169.089-.622.23.009.016-.158.054-.312.12-.472.171-.424.137-.909.151-1.32.3.211-.078.324-.039.024-.01-.129.013-.259.024-.389.032-.312.021-.625.028-.938.027q-.42,0-.84-.031c-.128-.008-.256-.019-.385-.032q-.11-.01-.219-.024-.236-.028.183.024c-.1.109-1.075-.226-1.233-.273s-.341-.114-.511-.172c-.449-.154.421.2.014.009q-.317-.149-.627-.312a2,2,0,0,0-2.019,3.454Z"/><path class="d" d="M180.985,153.2a25.722,25.722,0,0,1,.611,2.794l-.071-.531a1.711,1.711,0,0,1,.01.385l.072-.531a.931.931,0,0,1-.043.173l.2-.478a.756.756,0,0,1-.061.112l.312-.405a.553.553,0,0,1-.091.09l.405-.312a1.867,1.867,0,0,1-.221.117l.477-.2a1.613,1.613,0,0,1-.373.109l.532-.072a1.517,1.517,0,0,1-.35,0l.531.071c-.132-.018-.261-.05-.393-.068a1.526,1.526,0,0,0-.8-.036,1.477,1.477,0,0,0-.743.238,2,2,0,0,0-.718,2.736,1.916,1.916,0,0,0,1.195.919c.351.047.692.135,1.049.151a3.452,3.452,0,0,0,1.609-.392,2.449,2.449,0,0,0,1.32-1.6,3.772,3.772,0,0,0-.014-1.658c-.152-.9-.36-1.792-.591-2.675a2,2,0,0,0-2.461-1.4,2.025,2.025,0,0,0-1.195.919,2.1,2.1,0,0,0-.2,1.541Z"/><path class="d" d="M190.923,126.649a21.846,21.846,0,0,1,7.166,5.217,30.44,30.44,0,0,1,2.973,3.564c.459.654.892,1.328,1.287,2.022q.27.474.515.961c.095.19.183.382.275.573a1.225,1.225,0,0,1,.123.278,2.063,2.063,0,0,0,2.46,1.4,2.014,2.014,0,0,0,1.4-2.46,29.161,29.161,0,0,0-6.035-8.988,25.38,25.38,0,0,0-8.142-6.018,2.064,2.064,0,0,0-2.736.717,2.016,2.016,0,0,0,.717,2.737Z"/><path class="d" d="M159.221,139.906a81.23,81.23,0,0,1,7.049-6.923,44.649,44.649,0,0,1,3.669-2.91,12.728,12.728,0,0,0,1.9-1.213q.71-.275-.425-.354-.926-.609-.607.128a5.315,5.315,0,0,0-.015,1.25,3.057,3.057,0,0,0,3.715,2.973,16.392,16.392,0,0,0,3.837-2.085,82.935,82.935,0,0,1,9-4.811,2.013,2.013,0,0,0,.718-2.737,2.054,2.054,0,0,0-2.737-.717,82.942,82.942,0,0,0-9,4.812c-.689.4-1.378.807-2.071,1.2-.669.384-1.076.268-.121.824q.775.847.685.035a5.335,5.335,0,0,0-.011-.748c-.122-1.813-1.022-3.858-3.138-3.855-1.426,0-2.916,1.246-4.029,2.039-1.4,1-2.746,2.084-4.049,3.209a81.182,81.182,0,0,0-7.2,7.051c-1.72,1.907,1.1,4.745,2.829,2.828Z"/><path class="d" d="M168.819,149.2a14.542,14.542,0,0,1,2.474-.55l-.532.072q.314-.042.628-.073a2.222,2.222,0,0,0,1.414-.585,2,2,0,0,0,0-2.829,1.95,1.95,0,0,0-1.414-.586,17.662,17.662,0,0,0-3.633.693,2.108,2.108,0,0,0-1.195.92,2,2,0,0,0,2.258,2.938Z"/><path class="d" d="M192.553,148.67a8.032,8.032,0,0,1,1.534.055l-.532-.072a7.93,7.93,0,0,1,1.781.464,1.515,1.515,0,0,0,.8.035,1.486,1.486,0,0,0,.743-.237,2,2,0,0,0,.718-2.736l-.313-.405a2,2,0,0,0-.882-.514,7.773,7.773,0,0,0-1.66-.446,10.347,10.347,0,0,0-2.187-.144,2.121,2.121,0,0,0-1.415.586,2,2,0,0,0,0,2.829,1.992,1.992,0,0,0,1.415.585Z"/><path class="a" d="M203.109,107.245c1.62-2.7,4.479-4.422,6.35-6.952s2.25-6.811-.53-8.285a7.241,7.241,0,0,0-3.588-.531l-22.4.516c-9.817.225-20.439.735-28.035,6.957-2.531,2.073-4.689,4.969-4.728,8.24s2.83,6.628,6.063,6.134l.87-.133a33.032,33.032,0,0,1,15.654-2.487c6.316.41,12.466,2.139,18.521,3.982,4.082,1.242,8.246,2.554,12.508,2.387s8.726-2.128,10.669-5.926.24-9.371-3.883-10.468Z"/><path class="d" d="M204.836,108.254c1.524-2.424,4.025-4.012,5.8-6.235a9.649,9.649,0,0,0,2.248-7.012,5.909,5.909,0,0,0-5.226-5.43,30.447,30.447,0,0,0-4.8-.042l-5.724.131c-6.8.157-13.632.159-20.427.556-5.979.349-12,1.191-17.492,3.711-5.118,2.351-10.669,6.795-11.016,12.866a8.571,8.571,0,0,0,3.551,7.29,6.8,6.8,0,0,0,3.474,1.266,9.366,9.366,0,0,0,4.061-.907c6.248-2.317,13.061-2.188,19.528-.952a104.488,104.488,0,0,1,10.128,2.57,77.48,77.48,0,0,0,10.1,2.667c6.176.961,13.651-.312,16.99-6.265,2.743-4.889.738-12.047-4.91-13.717-2.474-.732-3.53,3.127-1.064,3.857,3.48,1.029,3.964,5.8,2.151,8.441-2.7,3.944-8.261,4.476-12.57,3.751-5.923-1-11.577-3.357-17.437-4.677a48.957,48.957,0,0,0-17.526-1.114,32.355,32.355,0,0,0-4.135.837c-1.375.378-2.664,1.065-4.025,1.439a2.512,2.512,0,0,1-2.027-.195,4.3,4.3,0,0,1-1.955-2.177c-1.925-4.544,3.589-8.785,6.967-10.65,4.32-2.386,9.309-3.36,14.178-3.815,5.557-.518,11.164-.5,16.739-.627l10.951-.252c1.6-.037,3.2-.122,4.8-.1,1.018.013,2.151.109,2.589,1.174.714,1.739-.32,3.868-1.451,5.152-1.944,2.207-4.332,3.919-5.919,6.443-1.373,2.185,2.086,4.195,3.454,2.018Z"/><path class="d" d="M130.542,212.558a32.53,32.53,0,0,1,4.024-8.485,20.529,20.529,0,0,1,6.719-6.008c5.567-3.281,11.636-5.684,17.58-8.181a2.068,2.068,0,0,0,1.4-2.46,2.013,2.013,0,0,0-2.461-1.4c-6.462,2.715-13.137,5.272-19.134,8.944-6.195,3.793-9.775,9.733-11.983,16.523-.8,2.454,3.064,3.5,3.858,1.064Z"/><path class="d" d="M235.382,210.984a34.936,34.936,0,0,0-4.653-9.47,24.858,24.858,0,0,0-7.483-6.732,87.72,87.72,0,0,0-9.248-4.66c-3.158-1.415-6.624-2.877-9.573-4.1a2.014,2.014,0,0,0-2.461,1.4,2.052,2.052,0,0,0,1.4,2.46,143.069,143.069,0,0,1,17.247,7.987,21.146,21.146,0,0,1,6.667,5.661,30.913,30.913,0,0,1,4.249,8.516c.823,2.424,4.688,1.384,3.858-1.064Z"/><path class="d" d="M123.988,216.228a73.09,73.09,0,0,0,22.848,1.671c6.983-.465,13.916-1.56,20.91-1.876,14.819-.671,29.622,1.195,44.44.785a74.676,74.676,0,0,0,21.8-3.364c2.427-.817,1.386-4.681-1.064-3.857C220.1,213.9,206.148,213,192.847,212.442c-7.506-.316-15.017-.643-22.532-.5-6.821.132-13.576,1.119-20.364,1.712-8.343.729-16.73.779-24.9-1.286-2.5-.631-3.561,3.225-1.063,3.857Z"/></svg>