<svg xmlns="http://www.w3.org/2000/svg" width="444.15" height="234.08" viewBox="0 0 444.15 234.08"><defs><style>.a{fill:#fff;}.b{fill:#b3b3b3;}.c{fill:#211715;}.d{fill:#645d5c;}.e{fill:none;}.f{fill:#3d8dcc;}</style></defs><path class="a" d="M2.11,12.108V190.026a2,2,0,0,0,2,2h305v-188a2,2,0,0,0-2-2H4.11a2,2,0,0,0-2,2Z"/><path class="b" d="M431.7,169.82c-4.895-7.451-14.9-12.085-25.535-16.549l-4.388-1.723-1.312-.516c-1.71-1.348-3.4-2.533-4.74-3.392-2.99,13.277-6.9,27.476-11.1,40.387-3.115,9.565-4.141,12.812-8.125,22.645h-1.286c-3.985-9.833-5.01-13.08-8.125-22.645-4.2-12.911-8.11-27.11-11.1-40.387-.3.194-.627.406-.962.635,3.894-1.115-11.236,5.216-22.839,10.383-7.212,3.213-12.285,9.184-15.046,16.581-1.8,4.811-3.574,9.842-4.593,12.97l-1.491,4.573c-2.434-5.294-3.589-7.592-6.712-14.147-6.24,2.83-16.41,7.68-22.38,10.43-.38.17,5.41,15.12,5.95,16.5,2.12,5.46,4.29,11,6.89,16.25a19.666,19.666,0,0,0,5.02,6.76,17.038,17.038,0,0,0,9.55,3.45,22.23,22.23,0,0,0,14.95-4.43c4.237-3.24,7.718-7.9,11.019-12.081.081,5.847.156,11.6.216,16.566H442.147c-1.3-18.133-1.688-24.047-2.963-36.012C438.21,186.885,435.19,175.127,431.7,169.82Z"/><path class="c" d="M314.951,196.535c-2.87-6.347-5.884-12.622-8.88-18.91a2.043,2.043,0,0,0-2.736-.717c-7.315,3.321-14.551,6.812-21.843,10.182-2.4,1.11-1.306,3.4-.652,5.283.867,2.5,1.8,4.968,2.735,7.439,2.319,6.128,4.641,12.268,7.287,18.262,1.882,4.264,3.84,8.892,7.548,11.915a19.865,19.865,0,0,0,13.057,4.084,24.452,24.452,0,0,0,14.605-5.324c4.2-3.326,7.423-7.685,10.716-11.86a2.064,2.064,0,0,0,0-2.829,2.014,2.014,0,0,0-2.828,0c-4.147,5.257-8.332,11.289-14.583,14.19-5.591,2.595-13.519,2.821-18.449-1.348-2.565-2.17-4.032-5.257-5.428-8.24-1.548-3.307-2.932-6.685-4.271-10.08s-2.645-6.785-3.932-10.191c-.791-2.093-1.576-4.189-2.324-6.3-.267-.75-.532-1.5-.773-2.261-.085-.267-.15-.542-.241-.806-.212-.619.011.3-.076.58l-.514.883c-.353.358.532-.126.7-.2l1.325-.615,2.718-1.27q2.976-1.4,5.95-2.794c3.757-1.763,7.513-3.529,11.292-5.245l-2.737-.717c3,6.288,6.01,12.563,8.88,18.91a2.016,2.016,0,0,0,2.737.717,2.047,2.047,0,0,0,.717-2.736Z"/><path class="a" d="M283.42,187.477a16.624,16.624,0,0,0-2.2-2.273c-.778-.664-1.616-1.254-2.42-1.885a29.657,29.657,0,0,1-8.012-9.663,5.359,5.359,0,0,1-2.152-3.332c-.156-1.719,2.458-3.38,4.34-2.727l.132.02-1.415-1.063c-1.122-.8-.413-3,.516-4.015a3.107,3.107,0,0,1,3.487-.765l-.916-1.33c-.6-.484-.051-2.719.732-3.564l.048-.051c-.153-.308-.282-.564-.282-.564a5.48,5.48,0,0,1-.735-3.464c.162-2.342,5.109-3.344,9.638-2.514a8.363,8.363,0,0,1,1.882.558c.269-.922.45-1.532.45-1.532a2.37,2.37,0,0,1,2.5-2c2.612.153,3.918,3.38,4.456,5.838.773,3.537,3.606,4.983,5.723,8.259,1.626,2.515,1.958,11.387,2.647,20.518a62.878,62.878,0,0,1-17.213,7.276A16.558,16.558,0,0,0,283.42,187.477Z"/><path class="a" d="M403.922,103.719a4.416,4.416,0,0,1,3.191-1.168,4.1,4.1,0,0,1,3.678,2.044c1.25,2.167,1.2,6.162.358,8.633a13.332,13.332,0,0,1-3.914,6.348,4.862,4.862,0,0,1-3.75,1.082l-.36-.06a28.544,28.544,0,0,1-1.291,3.5c-1.006,2.733-6.824,12.7-14.018,15.743v3.148s0,.32,0,.835c-3.452,2.724-10.29,8.1-10.954,8.574h-2.02c-.651-.462-7.241-5.645-10.75-8.414v-.8s0-1.863,0-3.177a24.365,24.365,0,0,1-9.515-7.4,33.558,33.558,0,0,1-6.368-12.013,4.773,4.773,0,0,1-4.058-1.017,13.332,13.332,0,0,1-3.914-6.348c-.839-2.471-.892-6.466.358-8.633a4.1,4.1,0,0,1,3.678-2.044,4.416,4.416,0,0,1,3.191,1.168S341.518,73.944,376.3,73.944,403.922,103.719,403.922,103.719Z"/><path class="d" d="M364.16,59.164a36.219,36.219,0,0,0-16.061,10.2,28.551,28.551,0,0,0-7.043,14.369,42.91,42.91,0,0,0,1.059,19.368,4.759,4.759,0,0,1,2.16-.547,4.272,4.272,0,0,1,3.8,1.915c0-.1,0-.166,0-.166v-2.415c.049-5.839,4.9-7.216,6.648-10.442,1.009-1.858,1.653-4.054,3.305-5.334a7.872,7.872,0,0,1,4.422-1.331,64.842,64.842,0,0,1,10.135-.092s6.394.191,8.7.4l1.252.117-.316-.974a5.684,5.684,0,0,0-.846-1.587,52.732,52.732,0,0,1,9.182,2.231c4.476,1.981,6.564,3.6,9.371,7.4a20.783,20.783,0,0,1,3.674,10.184v1.627a4.323,4.323,0,0,1,3.521-1.533,4.61,4.61,0,0,1,2.473.734c3.258-9.638,1.907-24.151-6.155-31.878a9.206,9.206,0,0,0-2.087-1.569l-4.508-4.086C388.732,56.816,375.556,55.486,364.16,59.164Z"/><path class="e" d="M394.443,64.258a34.782,34.782,0,0,0-38.962.891,33.822,33.822,0,0,0-13.965,26.462,36.917,36.917,0,0,0,1.248,10.65"/><path class="e" d="M408.483,102.261a35.26,35.26,0,0,0,1.229-10.65c-.48-11.352-5.415-19.047-10.878-23.983"/><path class="c" d="M352.7,147.461c-7.112,3.292-14.378,6.241-21.518,9.47a30.834,30.834,0,0,0-15.62,16.888c-1.836,4.535-3.419,9.21-4.939,13.859-.8,2.452,3.059,3.5,3.857,1.063,1.28-3.914,2.677-7.792,4.1-11.655a31.788,31.788,0,0,1,5.468-9.879c5.273-6.147,13.22-8.63,20.431-11.77,3.419-1.489,6.851-2.955,10.236-4.522a2.016,2.016,0,0,0,.717-2.736,2.046,2.046,0,0,0-2.736-.718Z"/><path class="c" d="M337.564,232.085c-.189-15.537-.376-31.076-.73-46.61-.058-2.57-4.059-2.58-4,0,.354,15.534.541,31.073.73,46.61.031,2.572,4.031,2.579,4,0Z"/><path class="c" d="M418.014,232.085q.169-19.232.433-38.462.06-4.074.137-8.148c.052-2.575-3.948-2.575-4,0-.239,11.976-.348,23.955-.469,35.932q-.054,5.338-.1,10.678c-.022,2.574,3.977,2.576,4,0Z"/><path class="a" d="M376.5,210.672c3.984-9.833,5.01-13.08,8.125-22.645,3.86-11.854,7.469-24.793,10.348-37.108a4.225,4.225,0,0,0-.951-3.483c-1.3-1.5-2.928-3.671-4.252-5.152-.563.455-12.033,9.5-12.9,10.116h-2.02c-.87-.617-12.34-9.661-12.9-10.116-1.324,1.481-2.957,3.651-4.252,5.152a4.225,4.225,0,0,0-.951,3.483c2.879,12.315,6.488,25.254,10.348,37.108,3.115,9.565,4.141,12.812,8.125,22.645Z"/><path class="f" d="M379.962,201.808c-.92,2.489-1.989,5.225-3.463,8.864h-1.286c-3.668-9.053-4.828-12.522-7.42-20.48,1.257-10.774,2.919-23.586,2.919-23.964a8.913,8.913,0,0,0-.309-2.013c-.077-.3-.146-.6-.208-.9-.332-1.5-.392-2.263-.778-3.848l-.024-.077c1.851-2.5,4.089-5.454,5.453-6.988h2.02c1.353,1.521,3.564,4.442,5.406,6.924-.105.293-.172.484-.172.484a19.548,19.548,0,0,0-.946,3.076,12.819,12.819,0,0,0-.748,3.565c-.01.634,1.739,12.783,3.36,24.213C382.3,195.162,381.285,198.228,379.962,201.808Z"/><path class="c" d="M371.152,167.063c2.99,0,5.979-.063,8.969-.064a2,2,0,0,0,0-4c-2.99,0-5.979.063-8.969.064a2,2,0,1,0,0,4Z"/><path class="c" d="M367.488,160c.371,1.574.628,3.172.987,4.75a5.966,5.966,0,0,1,.192,1.924c-.15,1.671-.407,3.338-.614,5-.771,6.183-1.541,12.367-2.264,18.556a2.011,2.011,0,0,0,2,2,2.048,2.048,0,0,0,2-2c.735-6.291,1.518-12.575,2.3-18.86.2-1.607.471-3.224.592-4.839a9.013,9.013,0,0,0-.305-2.647c-.374-1.644-.646-3.309-1.032-4.95-.59-2.5-4.448-1.444-3.858,1.064Z"/><path class="c" d="M385.615,189.568c-.855-6.024-1.722-12.046-2.559-18.073-.227-1.631-.428-2.917-.6-4.5a5.366,5.366,0,0,1,.123-1.817,24.875,24.875,0,0,1,1.246-4.361,2.063,2.063,0,0,0-.717-2.736,2.014,2.014,0,0,0-2.736.718,33.688,33.688,0,0,0-1.477,4.65,10.12,10.12,0,0,0-.468,3.287c.105,1.629.418,3.266.641,4.881.874,6.342,1.789,12.677,2.689,19.015a2.013,2.013,0,0,0,2.46,1.4,2.054,2.054,0,0,0,1.4-2.461Z"/><path class="c" d="M370.65,128.045a12.086,12.086,0,0,0,5.823,1.359,9.6,9.6,0,0,0,5.987-1.813,2,2,0,0,0,0-2.828,2.06,2.06,0,0,0-2.828,0c.691-.539-.025-.012-.244.1-.169.088-.622.229.008.016-.158.053-.312.12-.472.171-.425.137-.912.15-1.322.3.21-.078.322-.039.023-.009-.13.013-.26.024-.39.032-.313.02-.626.028-.94.026q-.421,0-.841-.03c-.129-.009-.257-.019-.386-.032l-.219-.024q-.235-.028.182.024c-.051.051-.551-.1-.633-.118q-.3-.068-.6-.156c-.173-.052-.342-.114-.512-.173-.45-.153.42.2.013.01-.212-.1-.421-.2-.628-.314a2,2,0,0,0-2.019,3.454Z"/><path class="c" d="M375.2,114.66a26.243,26.243,0,0,1,.612,2.8l-.072-.532a1.663,1.663,0,0,1,.011.386l.071-.531a.929.929,0,0,1-.042.173l.2-.477a.665.665,0,0,1-.061.111l.313-.4a.6.6,0,0,1-.092.09l.405-.313a1.678,1.678,0,0,1-.222.117l.478-.2a1.621,1.621,0,0,1-.374.109l.532-.072a1.526,1.526,0,0,1-.351,0l.532.071c-.132-.018-.262-.05-.394-.068a1.516,1.516,0,0,0-.8-.036,1.486,1.486,0,0,0-.743.237,2,2,0,0,0-.718,2.737,1.916,1.916,0,0,0,1.2.919c.351.047.692.135,1.05.151a3.442,3.442,0,0,0,1.61-.393,2.444,2.444,0,0,0,1.32-1.6,3.776,3.776,0,0,0-.013-1.659c-.153-.9-.361-1.8-.593-2.68a2,2,0,0,0-2.46-1.4,2.025,2.025,0,0,0-1.195.919,2.1,2.1,0,0,0-.2,1.542Z"/><path class="c" d="M360.886,106.582c-.467,1.519-.162,5.014,2.715,5.311,3.8-.023,4.006-4.247,2.726-6.234C365.279,104.033,362.2,103.356,360.886,106.582Z"/><path class="c" d="M391.463,106.582c.467,1.52.163,5.014-2.715,5.311-3.8-.023-4.006-4.247-2.726-6.234C387.07,104.033,390.153,103.356,391.463,106.582Z"/><path class="c" d="M348.88,102.305a6.813,6.813,0,0,0-7.422-1.107,6.476,6.476,0,0,0-3.387,4.358,16.224,16.224,0,0,0,2.354,12.807c1.664,2.476,4.293,4.709,7.478,4.3a2.065,2.065,0,0,0,2-2,2.012,2.012,0,0,0-2-2c-2.222.289-3.673-1.551-4.637-3.329a13.046,13.046,0,0,1-1.581-4.912,12.122,12.122,0,0,1,.076-3.063,5.125,5.125,0,0,1,.767-2.071c-.322.513.513-.442.217-.225a1.925,1.925,0,0,1,.94-.43,2.6,2.6,0,0,1,2.366.5c1.916,1.709,4.754-1.11,2.829-2.828Z"/><path class="c" d="M405.337,105.133a2.565,2.565,0,0,1,2.237-.533,2.023,2.023,0,0,1,1.069.458c-.291-.214.531.725.217.225a5.135,5.135,0,0,1,.767,2.071,11.983,11.983,0,0,1,.076,3.063,13.081,13.081,0,0,1-1.581,4.912c-.963,1.778-2.414,3.618-4.637,3.329a2.01,2.01,0,0,0-2,2,2.049,2.049,0,0,0,2,2c5.183.673,8.368-4.923,9.663-9.114,1.162-3.76,1.108-9.589-2.568-11.995a6.776,6.776,0,0,0-8.072.756c-1.925,1.717.912,4.538,2.829,2.828Z"/><path class="c" d="M401.729,117.994a28.463,28.463,0,0,1-1.286,4.285c-.193.507-.338.8-.573,1.385-.2.5.141-.285-.031.075-.062.13-.12.261-.182.391a36.515,36.515,0,0,1-3.14,5.226c-2.728,3.865-6.461,8.087-11.256,9.214-2.505.589-1.445,4.446,1.063,3.857,5.68-1.335,10.05-6.077,13.341-10.624a37.371,37.371,0,0,0,3.412-5.585c.2-.422.387-.852.568-1.285.215-.515-.162.348.076-.175.154-.339.293-.687.431-1.034a28.5,28.5,0,0,0,1.434-4.667c.524-2.512-3.331-3.586-3.857-1.063Z"/><path class="c" d="M345.721,118.957c2.438,10.692,10.486,22.349,22.041,24.091a2.065,2.065,0,0,0,2.46-1.4,2.015,2.015,0,0,0-1.4-2.461c-10.262-1.548-17.088-11.828-19.247-21.3-.572-2.508-4.429-1.447-3.857,1.064Z"/><path class="c" d="M398.25,64.338c-7.892-8.587-20.25-10.55-31.235-8.035-11.673,2.673-22.458,10.525-26.6,22.047-2.8,7.778-2.621,16.968-.358,24.853.709,2.47,4.569,1.42,3.857-1.063a39.006,39.006,0,0,1-.4-20.28,28.317,28.317,0,0,1,9.292-14.31,36.131,36.131,0,0,1,28.126-7.939,24.775,24.775,0,0,1,14.488,7.555c1.746,1.9,4.569-.935,2.829-2.828Z"/><path class="c" d="M411.888,102.618A38.3,38.3,0,0,0,412.276,84c-1.319-5.87-4.451-12.788-9.923-15.887-2.243-1.27-4.261,2.184-2.019,3.454,4.672,2.646,7.1,8.878,8.161,13.843a33.914,33.914,0,0,1-.464,16.147c-.7,2.482,3.159,3.541,3.857,1.063Z"/><path class="c" d="M388.067,212.105c4.938-8.561,9.829-17.151,14.562-25.827q3.487-6.39,6.837-12.853a8.924,8.924,0,0,0,1.328-3.222,4.12,4.12,0,0,0-1.35-3.143c-1.691-1.891-3.584-3.619-5.432-5.353l-.4,3.141,4.1-2.34c1.2-.683,2.533-1.366,2.518-2.947-.018-1.97-2.063-4.053-3.314-5.4a53.1,53.1,0,0,0-10.177-8.248,2.015,2.015,0,0,0-2.938,1.195,464.181,464.181,0,0,1-14.624,51c-1.418,4.054-2.991,8.05-4.6,12.03a2.013,2.013,0,0,0,1.4,2.46,2.048,2.048,0,0,0,2.46-1.4,394.771,394.771,0,0,0,15.433-47.535q2.032-7.715,3.793-15.5l-2.938,1.2a56.366,56.366,0,0,1,6.5,4.871,36.8,36.8,0,0,1,3.1,3,16.123,16.123,0,0,1,1.116,1.346q.258.355.489.731c.105.171.334.878.313.386l.273-1.009-.177.271.718-.717c-1.725,1.169-3.647,2.111-5.457,3.144a2.019,2.019,0,0,0-.4,3.142c1.739,1.631,3.461,3.279,5.106,5.006q.283.3.571.6.032-.714-.232.06a7.088,7.088,0,0,0-.617,1.2q-.729,1.413-1.467,2.821-3.185,6.083-6.5,12.1c-4.38,7.975-8.886,15.88-13.432,23.762-1.289,2.234,2.166,4.25,3.454,2.019Z"/><path class="c" d="M388.355,143.7c.97,1.1,1.876,2.249,2.795,3.389.66.817,1.68,1.681,1.875,2.763.019.105.06.595.088.373.021-.162,0-.017-.032.067a4.951,4.951,0,0,1-.347.592c-.376.622-.768,1.234-1.166,1.842-1.091,1.664-2.231,3.307-3.476,4.86-.661.824-1.347,1.631-2.082,2.391-.316.327-.64.646-.98.948a4.146,4.146,0,0,1-.834.65l2.737.717c-2.838-3.791-5.516-7.749-8.652-11.3l-.405,3.141c4.563-3.276,8.934-6.9,13.307-10.429a2.011,2.011,0,0,0,0-2.828,2.046,2.046,0,0,0-2.828,0c-2.066,1.664-4.164,3.289-6.249,4.929q-2.121,1.666-4.246,3.329l-.786.612c-.14.109-.964.746-.447.349-.256.2-.509.4-.77.584a2.039,2.039,0,0,0-.405,3.141c2.912,3.3,5.393,6.976,8.027,10.5a2.039,2.039,0,0,0,2.736.718,22,22,0,0,0,4.952-4.925q2.234-2.832,4.187-5.87c1.116-1.733,2.061-3.254,1.528-5.445a10.349,10.349,0,0,0-2.472-4c-1.069-1.313-2.105-2.653-3.227-3.922C389.475,138.937,386.655,141.775,388.355,143.7Z"/><path class="c" d="M367.1,210.086c-4.546-7.882-9.052-15.787-13.432-23.762q-3.252-5.919-6.394-11.894-.791-1.511-1.573-3.024a7.02,7.02,0,0,0-.618-1.2c-.175-.516-.253-.536-.231-.06q.288-.3.571-.6c1.645-1.727,3.367-3.375,5.106-5.006a2.019,2.019,0,0,0-.405-3.142c-1.81-1.033-3.732-1.975-5.457-3.144l.718.717-.177-.271.273,1.009c-.021.5.145-.109.239-.265q.224-.373.475-.729a15.063,15.063,0,0,1,1.089-1.343,36.27,36.27,0,0,1,3.215-3.131,56.28,56.28,0,0,1,6.5-4.871l-2.938-1.2a464.26,464.26,0,0,0,14.624,51c1.418,4.054,2.991,8.049,4.6,12.03a2.063,2.063,0,0,0,2.46,1.4,2.013,2.013,0,0,0,1.4-2.46A394.655,394.655,0,0,1,361.709,162.6q-2.033-7.715-3.793-15.5a2.015,2.015,0,0,0-2.938-1.195,53.1,53.1,0,0,0-10.177,8.248c-1.223,1.317-3.217,3.343-3.308,5.256-.075,1.561,1.1,2.283,2.3,2.968l4.315,2.463-.4-3.141c-1.848,1.734-3.741,3.462-5.432,5.353a4.125,4.125,0,0,0-1.351,3.143,8.944,8.944,0,0,0,1.329,3.222q3.339,6.468,6.837,12.853c4.733,8.676,9.624,17.266,14.562,25.827,1.286,2.229,4.744.217,3.454-2.019Z"/><path class="c" d="M360.529,140.87c-1.122,1.269-2.158,2.609-3.228,3.922a10.32,10.32,0,0,0-2.471,4c-.533,2.19.413,3.713,1.528,5.445q1.953,3.033,4.187,5.87a22,22,0,0,0,4.952,4.925,2.047,2.047,0,0,0,2.736-.718c2.634-3.519,5.115-7.194,8.027-10.5a2.039,2.039,0,0,0-.4-3.141c-.262-.188-.514-.388-.77-.584.514.4-.317-.248-.447-.349l-.786-.612q-2.127-1.661-4.246-3.329c-2.085-1.64-4.184-3.265-6.249-4.929a2.058,2.058,0,0,0-2.828,0,2.013,2.013,0,0,0,0,2.828c4.373,3.525,8.744,7.153,13.307,10.429l-.405-3.141c-3.136,3.555-5.814,7.513-8.652,11.3l2.736-.717a20.8,20.8,0,0,1-3.813-3.886c-1.277-1.584-2.443-3.262-3.558-4.963-.4-.608-.79-1.22-1.166-1.842-.11-.183-.236-.365-.328-.558a.979.979,0,0,1-.1-.179c.114.454.11-.219.123-.251a10.2,10.2,0,0,1,1.888-2.807c.919-1.141,1.825-2.292,2.8-3.389C365.056,141.776,362.238,138.936,360.529,140.87Z"/><path class="c" d="M362.1,140.949v2.233a2.054,2.054,0,0,0,2,2,2.018,2.018,0,0,0,1.414-.586,2.078,2.078,0,0,0,.586-1.414v-2.233a2.056,2.056,0,0,0-2-2,2.022,2.022,0,0,0-1.414.585,2.078,2.078,0,0,0-.586,1.415Z"/><path class="c" d="M385.816,140.813v2.307h4v-.129a2.056,2.056,0,0,0-2-2,2.021,2.021,0,0,0-1.415.586,2.077,2.077,0,0,0-.585,1.414v.129a2.057,2.057,0,0,0,2,2,2.024,2.024,0,0,0,1.414-.586,2.078,2.078,0,0,0,.586-1.414v-2.307a2.056,2.056,0,0,0-2-2,2.024,2.024,0,0,0-1.415.585,2.082,2.082,0,0,0-.585,1.415Z"/><path class="c" d="M401.242,153.473c5.051,1.99,10.078,4.041,14.913,6.52,5.791,2.97,11.775,6.692,14.867,12.643,3.211,6.179,4.726,13.485,5.762,20.316.83,5.475,1.226,11.047,1.686,16.564.627,7.517,1.135,15.044,1.674,22.569.183,2.552,4.184,2.572,4,0-.909-12.693-1.547-25.483-3.21-38.107a78.212,78.212,0,0,0-5.716-21.821c-2.9-6.452-8.469-10.869-14.515-14.263a148.5,148.5,0,0,0-18.4-8.278,2.014,2.014,0,0,0-2.46,1.4,2.047,2.047,0,0,0,1.4,2.46Z"/><path class="c" d="M372.578,82.686a50.5,50.5,0,0,0-11.308.2,8.267,8.267,0,0,0-5.68,2.844c-1.223,1.521-1.756,3.371-2.779,5-1.312,2.095-3.9,3.56-5.286,5.824-1.465,2.4-1.457,5.033-1.457,7.739,0,2.574,4,2.578,4,0,0-2.039-.158-4.037.983-5.838,1.3-2.056,3.539-3.33,4.952-5.317.924-1.3,1.393-2.865,2.216-4.225a4.606,4.606,0,0,1,4.028-2.128,57.324,57.324,0,0,1,10.331-.106,2.013,2.013,0,0,0,2-2,2.047,2.047,0,0,0-2-2Z"/><path class="c" d="M384.139,83.7c-1.488-4.44-6.431-6.788-10.843-6.884a2.018,2.018,0,0,0-2,2,2.038,2.038,0,0,0,2,2c.3.006.592.02.887.047.139.012.578-.007.039-.006a2.155,2.155,0,0,1,.348.055,11.053,11.053,0,0,1,1.51.371c.118.039.633.3.726.264-.073.032-.432-.191-.074-.027.113.051.224.1.335.159a10.1,10.1,0,0,1,1.176.689c.094.065.185.132.279.2.281.2-.274-.235-.095-.075.148.132.306.253.453.387a9.821,9.821,0,0,1,.843.888c.211.246-.236-.334-.105-.14.052.078.11.151.163.228.093.137.181.276.264.419s.155.3.235.452c.149.28-.176-.5-.076-.181.024.074.054.146.078.219a2,2,0,1,0,3.857-1.063Z"/><path class="c" d="M389.538,86.6a25.085,25.085,0,0,1,5,2.778,19.543,19.543,0,0,1,3.845,4.166,18.451,18.451,0,0,1,3.21,10.753c0,2.574,4,2.578,4,0a22.163,22.163,0,0,0-3.756-12.772,24.207,24.207,0,0,0-4.378-4.9,26.017,26.017,0,0,0-5.9-3.477,2.063,2.063,0,0,0-2.737.717,2.015,2.015,0,0,0,.718,2.736Z"/><path class="c" d="M264.49,190.026H5.578c-.2,0-1.308.155-1.463,0s0-1.284,0-1.5V6.951c0-.566-.312-2.287,0-2.784.134-.213.182-.117.543-.141,2.4-.159,4.873,0,7.28,0H305.2c.334,0,1.525-.2,1.807,0,.221.158.105.752.105,1.089v135.02c0,2.574,4,2.578,4,0V18.045c0-4.47.042-8.943,0-13.413-.022-2.459-1.413-4.48-4.075-4.606-.573-.027-1.155,0-1.729,0H11.053c-2.212,0-4.433-.059-6.644,0A4.162,4.162,0,0,0,.11,4.131c-.04.894,0,1.8,0,2.695V184.183c0,2.936-.9,8.1,2.451,9.514,1.811.764,4.493.329,6.387.329H264.49c2.573,0,2.578-4,0-4Z"/><path class="c" d="M276.246,172.332c.054.074.243.435.087.1-.181-.389.012.325-.032-.1-.038-.384,0,.087-.006.176,0,.057-.012.117-.009.173.013.237.1-.467.017-.122-.029.116-.051.233-.084.348-.02.069-.193.529-.059.207s-.064.106-.1.17a.912.912,0,0,0-.087.138c-.056.168.253-.262.125-.158a.7.7,0,0,0-.134.139c-.084.13.17-.152.2-.151a1.734,1.734,0,0,0-.379.224c-.169.112.159-.065.178-.067a1.058,1.058,0,0,0-.19.069,4.425,4.425,0,0,1-.531.143.978.978,0,0,0-.2.038c.056-.027.47-.033.116-.026-.139,0-.276.01-.415,0a1.814,1.814,0,0,0-.27-.019c.017,0,.4.086.2.021-.176-.059-.366-.111-.543-.162-.225-.064.087.046.1.048a.971.971,0,0,1-.221-.1c-.171-.084-.338-.175-.5-.272-.331-.195-.649-.412-.959-.639l-.264-.2c.02.015.254.2.079.06-.137-.113-.276-.221-.409-.339-.271-.238-.513-.5-.759-.76s.144.232-.067-.077c-.1-.146-.2-.292-.283-.445-.037-.065-.07-.131-.106-.2-.2-.36.047.056.024.076,0,0-.149-.547-.156-.552.022.016.008.363.029.2a.774.774,0,0,0,0-.152c0-.065.023-.289-.014.066-.045.436.023.032.017.018-.013-.035.048-.11.049-.146,0,.024-.2.37-.093.239.042-.049.326-.493.112-.207-.2.267.116-.1.19-.174.022-.022.126-.088.131-.116-.017.094-.393.263-.071.062.12-.075.238-.152.363-.219a1.722,1.722,0,0,0,.219-.108c-.023.056-.421.147-.137.063.156-.047.309-.1.469-.136.059-.013.121-.019.179-.034.21-.057-.5.009-.113.025.136,0,.28.011.415.009.247,0-.395-.132-.183-.017a1.81,1.81,0,0,0,.282.078,2.016,2.016,0,0,0,2.46-1.4,2.046,2.046,0,0,0-1.4-2.461,5.705,5.705,0,0,0-5.488,1.461,4.445,4.445,0,0,0-1.371,2.793,5.065,5.065,0,0,0,.854,3.037,9.1,9.1,0,0,0,2.094,2.289,12.89,12.89,0,0,0,2.687,1.761,6.12,6.12,0,0,0,3.41.559,5.59,5.59,0,0,0,3.024-1.278c1.484-1.321,2.206-4.28.979-5.977a2.047,2.047,0,0,0-2.736-.717,2.022,2.022,0,0,0-.718,2.736Z"/><path class="c" d="M277.561,160.416a6.277,6.277,0,0,0-4.37-.712,5.2,5.2,0,0,0-3.031,2.243,5.96,5.96,0,0,0-1.03,3.5,3.672,3.672,0,0,0,.577,1.864,3.615,3.615,0,0,0,.98.969c.114.086.232.168.346.254-.211-.159.269.216.321.259,1.548,1.253,3.186,2.384,4.788,3.566a12.478,12.478,0,0,0,2.068,1.328,5.3,5.3,0,0,0,3.735.221,4.885,4.885,0,0,0,3.318-2.969,5.091,5.091,0,0,0-.646-4.775,2.046,2.046,0,0,0-2.737-.718,2.025,2.025,0,0,0-.717,2.737,3.616,3.616,0,0,1,.423.707c-.157-.387.028.585,0,.019,0,.089-.006.652.019.374s-.015.037-.034.11a1.138,1.138,0,0,1-.113.351c.021-.024.226-.4.022-.1a.741.741,0,0,0-.105.173c-.058.234.251-.276.078-.093-.059.062-.2.292-.051.081.137-.195.013,0-.09.054-.065.035-.13.073-.194.11-.3.177-.017,0,.057-.017-.125.037-.246.083-.372.116-.1.027-.206.042-.306.07-.277.079.355-.011.07-.008-.173,0-.35.008-.523.012-.429.009.132,0,.113.025a1.057,1.057,0,0,1-.136-.033c-.006-.01-.16-.053-.151-.053.1,0,.48.238.182.065a18.431,18.431,0,0,1-1.616-1.041c-1.046-.757-2.094-1.506-3.142-2.257-.037-.026-.356-.262-.181-.129s-.139-.111-.174-.14c-.177-.142-.353-.286-.528-.43-.208-.169-.416-.338-.627-.5-.188-.148-.378-.295-.568-.44-.074-.056-.484-.258-.272-.2l.066.054c-.115-.119-.117-.111,0,.025.168.244.053.059.024,0,.208.394.127.28.075.137-.127-.35.068.141.017.153,0,0,0-.292,0-.268-.013-.315-.025.113-.024.115-.054-.076.118-.486.143-.565.031-.095.068-.185.1-.279-.154.437-.044.111.015.009s.223-.512.333-.541c.012,0-.34.358-.066.1a2.5,2.5,0,0,0,.243-.239c.148-.188-.308.139-.083.063a2.007,2.007,0,0,0,.293-.175c.267-.164-.1.043-.1.038.009-.032.238-.068.271-.079.38-.123-.072.047-.1,0,0,.007.341-.012.384-.01.069,0,.4.049.138,0-.29-.052.189.053.243.068.12.033.237.072.355.114-.32-.113.223.11.266.132a2,2,0,1,0,2.019-3.453Z"/><path class="c" d="M282.806,164.569c-1.766-1.431-3.48-2.921-5.216-4.388q-.489-.412-.984-.819a3.273,3.273,0,0,0-.291-.237c-.178-.114-.166-.277.09.191.266.488.128.38.1.223.115.591.025.262.025.081,0,.018.007-.26.013-.26.033,0-.109.471,0,.041.057-.22.105-.439.178-.654.032-.1.069-.19.105-.284-.159.419-.072.162-.019.075a1.409,1.409,0,0,0,.172-.3c.084-.128.042-.08-.128.145a1.6,1.6,0,0,1,.137-.148c.047-.044.32-.248.113-.113-.25.162.218-.108.216-.107-.072.041-.372.112-.017.014l.322-.085c.37-.093.049,0-.031,0,.141,0,.281-.01.423,0s.459.1.06,0c.165.044.329.083.492.135-.09-.029-.382-.2.031.023.125.066.252.13.376.2q.406.219.8.457a16.837,16.837,0,0,1,1.515,1.025c-.259-.2.225.188.317.267q.349.3.683.61c.408.384.8.784,1.175,1.2.1.115.2.23.3.348.064.077.293.395.065.076.131.184.26.369.377.561a7.608,7.608,0,0,1,.367.676c.023.048.171.386.082.172-.082-.2.109.309.128.362.059.156.032.429.027-.015,0,.155,0,.306-.008.461.008-.1.1-.39-.014-.066-.037.1-.217.54-.018.13-.048.1-.1.195-.151.289s-.35.445-.06.129c-.073.08-.141.161-.218.238-.146.145-.395.22-.081.085-.088.038-.176.108-.264.153q.345-.135,0-.031l.191-.034c-.142.108-.223-.047.025.018-.129-.034-.492-.173-.179-.03a5.174,5.174,0,0,1-.831-.5c-.05-.034-.341-.251-.133-.093s-.229-.187-.27-.22a2.051,2.051,0,0,0-2.829,0,2.023,2.023,0,0,0,0,2.829c1.261,1.021,2.664,2.093,4.387,1.983a4.862,4.862,0,0,0,3.928-2.949,5.214,5.214,0,0,0,.521-2.395,6.7,6.7,0,0,0-.821-2.617,12.976,12.976,0,0,0-2.74-3.465,19.75,19.75,0,0,0-3.719-2.808,6.767,6.767,0,0,0-4.974-1.06,4.958,4.958,0,0,0-3.532,3.174,4.744,4.744,0,0,0-.076,4.073,6.686,6.686,0,0,0,1.579,1.48c.52.437,1.035.879,1.551,1.321,1.286,1.1,2.58,2.2,3.9,3.263a2.05,2.05,0,0,0,2.829,0A2.023,2.023,0,0,0,282.806,164.569Z"/><path class="c" d="M288.445,149.845a2.767,2.767,0,0,0,.143-.49,1.141,1.141,0,0,1,1.135.34c1.033.844,1.442,2.462,1.749,3.692a11.787,11.787,0,0,0,2.279,4.619c1.027,1.295,2.266,2.412,3.25,3.741a6.063,6.063,0,0,1,1.207,2.9,40.377,40.377,0,0,1,.66,4.552c.43,4.243.656,8.506.974,12.759.192,2.551,4.193,2.572,4,0-.3-3.986-.52-7.979-.9-11.958a32.012,32.012,0,0,0-1.419-8.3c-1.067-2.807-3.647-4.5-5.229-6.949-.822-1.275-.965-2.74-1.487-4.138a9.535,9.535,0,0,0-2.373-3.849,5.211,5.211,0,0,0-4.914-1.27,4.637,4.637,0,0,0-2.936,3.283c-.769,2.463,3.091,3.517,3.857,1.064Z"/><path class="c" d="M283.47,156.8a34.85,34.85,0,0,0,1.81,6.791,9.83,9.83,0,0,1,.11,6.2,2,2,0,1,0,3.857,1.063,13.51,13.51,0,0,0,.12-7.6c-.61-2.122-1.652-4.385-1.9-6.456a2.063,2.063,0,0,0-2-2,2.012,2.012,0,0,0-2,2Z"/><path class="c" d="M284.06,159.141c2.071-.515,4.562-1.3,5.676-3.292a4.744,4.744,0,0,0-.808-5.443c-1.87-1.986-5.071-2.363-7.646-2.405-2.252-.037-4.948.238-6.835,1.595a4.752,4.752,0,0,0-1.391,1.443,3.77,3.77,0,0,0-.38.894c-.021.074-.031.147-.046.222-.325,1.581.066-.8-.109.809a8.223,8.223,0,0,0,1.033,4.31,2.016,2.016,0,0,0,2.736.718,2.048,2.048,0,0,0,.718-2.737,6.15,6.15,0,0,1-.433-1.16,4.83,4.83,0,0,1-.113-.521c.064.43.031-.136.028-.287,0-.039.016-.318,0-.058-.031.452.256-.8.038-.276-.193.461.2-.366-.015.071-.142.292-.015.048.03-.016.122-.172-.14.178-.138.165.022-.121.281-.273.362-.353-.229.227-.155.12.05,0,.152-.09.316-.157.468-.244.188-.109-.083.036-.109.044.106-.035.21-.078.316-.114.223-.075.451-.141.68-.2.181-.046.364-.086.548-.122.135-.027.607-.1.51-.089s.447-.042.55-.05c.247-.019.5-.031.742-.038q.77-.022,1.537.025a11.617,11.617,0,0,1,1.261.127,10.221,10.221,0,0,1,1.563.366c.1.033.2.067.3.1-.037-.014-.23-.106-.025-.012s.421.222.628.343c.072.042.139.092.207.14-.331-.235-.106-.087-.043-.018.1.106.2.21.3.313-.357-.371-.07,0,.013.093.123.138-.076-.149-.079-.191a1.937,1.937,0,0,0,.077.284c.013.051.016.1.03.153.072.255-.159-.084-.03-.232a1.13,1.13,0,0,0,.013.292,1.319,1.319,0,0,0-.008.191c-.025-.028.114-.44.041-.3-.055.1-.212.435-.017.167s-.032,0-.072.108c-.105.273.06-.156.132-.154-.024,0-.124.143-.146.163-.2.187-.381.257-.051.081-.161.086-.307.209-.467.3-.184.105-.374.2-.565.287.34-.163-.168.065-.285.107a18.473,18.473,0,0,1-1.831.54,2,2,0,1,0,1.064,3.857Z"/><path class="c" d="M269.963,176.281a31.944,31.944,0,0,0,6.074,7.324c1.207,1.07,2.549,1.969,3.771,3.013a14.843,14.843,0,0,1,2.974,3.409,2,2,0,1,0,3.454-2.019,18.934,18.934,0,0,0-3.238-3.9c-1.2-1.083-2.554-1.971-3.779-3.021a27.93,27.93,0,0,1-5.8-6.824,2,2,0,0,0-3.454,2.019Z"/><path class="c" d="M263.263,100.286c4.638,12.6,9.162,25.241,13.9,37.805q2.094,5.555,4.255,11.084a2.061,2.061,0,0,0,2.461,1.4,2.015,2.015,0,0,0,1.4-2.46c-5.215-13.267-10.055-26.682-14.932-40.076q-1.606-4.408-3.22-8.812c-.882-2.4-4.749-1.36-3.857,1.063Z"/><path class="c" d="M286.335,190.818a67.684,67.684,0,0,0,16.511-7.159c2.2-1.325.195-4.785-2.019-3.454a63.51,63.51,0,0,1-15.555,6.755c-2.474.7-1.423,4.56,1.063,3.858Z"/></svg>