<svg xmlns="http://www.w3.org/2000/svg" width="394.712" height="293.169" viewBox="0 0 394.712 293.169"><defs><style>.a{fill:#211715;}.b{fill:#fff;}.c{fill:#3d8dcc;}.d{fill:#f2635f;}.e{fill:#ffda71;}</style></defs><path class="a" d="M27.307,223.009l35.11-35.11c2.187-2.187-1.206-5.582-3.394-3.394l-35.11,35.11c-2.187,2.187,1.206,5.582,3.394,3.394Z"/><path class="a" d="M24.483,260.62l53.6-53.6,15.163-15.162c2.187-2.188-1.207-5.583-3.395-3.395l-53.6,53.6L21.089,257.226c-2.188,2.187,1.206,5.582,3.394,3.394Z"/><path class="b" d="M158.487,290.724l-10.01,0c-5.535,0-4.727-6.433-3.992-8.025s2.19-2.612,4.709-3.092c8.727-1.66,10.888-6.372,11.612-14.722.311-3.578.632-5.8.809-9.365.113-2.3.312-4.867.655-8.358h58.579c.338,3.492.537,6.059.65,8.359.177,3.566.5,5.787.809,9.365.724,8.35,2.885,13.062,11.611,14.722,2.52.48,3.974,1.5,4.71,3.092s1.543,8.025-3.992,8.025l-43.08-.009Z"/><rect class="b" x="48.776" y="55.875" width="285.455" height="191.288" rx="15.432"/><path class="a" d="M318.8,244.763H68.625a33.116,33.116,0,0,1-7.264-.309,13.182,13.182,0,0,1-10.185-12.747c-.008-.817,0-1.635,0-2.452V78.532a76.462,76.462,0,0,1,.08-8.8A13.177,13.177,0,0,1,64.21,58.275c.464,0,.928,0,1.392,0H317.9a16.209,16.209,0,0,1,4.488.5,13.159,13.159,0,0,1,9.446,12.576c.027,2.927,0,5.856,0,8.783V230.105c0,1,.034,2.015-.063,3.009a13.163,13.163,0,0,1-12.97,11.649c-3.086.04-3.1,4.84,0,4.8a18.078,18.078,0,0,0,17.053-12.6,21.521,21.521,0,0,0,.78-6.464V80.134c0-2.932.029-5.866,0-8.8A18.008,18.008,0,0,0,326.7,55.325a19.266,19.266,0,0,0-8.475-1.85H65.441c-.675,0-1.353-.013-2.027.02A18.033,18.033,0,0,0,47,66.629c-.959,3.535-.621,7.52-.621,11.156V229.333c0,.794-.009,1.59,0,2.384A18,18,0,0,0,56.99,248.023c3.6,1.568,7.148,1.54,10.924,1.54H318.8C321.887,249.563,321.892,244.763,318.8,244.763Z"/><path class="a" d="M159.778,248.117c-.386,4.089-.535,8.194-.937,12.28-.334,3.407-.424,6.89-1.453,10.169a8.431,8.431,0,0,1-4.07,5.177c-2.877,1.59-6.681,1.346-9.325,3.662-4.074,3.568-3.1,12.1,2.526,13.491a23.019,23.019,0,0,0,5.386.229l8.845,0q27.914-.006,55.827,0l17.224,0c2.615,0,5.049-.6,6.567-2.916a9.562,9.562,0,0,0,.827-7.4c-.928-3.531-4.066-4.94-7.34-5.656a14.641,14.641,0,0,1-4.176-1.475,10.01,10.01,0,0,1-1.31-.889q-.326-.287-.626-.6c-.113-.118-.222-.239-.33-.362-.039-.045-.356-.449-.157-.183a14.716,14.716,0,0,1-2.4-7.255c-.492-4.056-.785-8.143-1.034-12.219-.124-2.021-.3-4.038-.489-6.054a2.466,2.466,0,0,0-2.4-2.4,2.417,2.417,0,0,0-2.4,2.4c.374,3.957.518,7.93.9,11.885a73.035,73.035,0,0,0,1.364,10.772,14.7,14.7,0,0,0,3.811,7.072,16.476,16.476,0,0,0,8.144,3.971c1.291.273,2.842.539,3.531,1.586.108.164.171.345.273.51-.048-.078-.14-.575-.113-.245a2.664,2.664,0,0,0,.123.416c.058.219.1.442.14.665.01.054.048.365.011.054-.045-.364.013.2.015.272a9.307,9.307,0,0,1-.027,1.484c.055-.472-.049.176-.087.325-.027.1-.06.208-.089.313-.171.616.122-.191-.04.126a1.478,1.478,0,0,1-1.535,1c-1.5.1-3.028.007-4.526.007l-8.972,0q-27.047-.006-54.092,0l-17.451,0c-.581,0-1.175.034-1.755-.007a1.486,1.486,0,0,1-1.535-1c-.169-.33.109.33,0-.024-.033-.1-.072-.2-.1-.31a4.013,4.013,0,0,0-.127-.534,4.282,4.282,0,0,0-.03-.542c-.008-.28,0-.558.016-.838,0-.134.022-.267.034-.4-.007.08-.093.508-.008.074.038-.2.073-.393.121-.588a4.668,4.668,0,0,0,.142-.493c.009-.068.132-.347-.035.063-.206.5.13-.229.2-.328.691-1.051,2.239-1.313,3.531-1.586a20.729,20.729,0,0,0,4.764-1.612,12.721,12.721,0,0,0,5.719-5.5,24.305,24.305,0,0,0,2.265-8.8c.421-3.962.743-7.926.991-11.9.123-1.962.293-3.922.478-5.879a2.417,2.417,0,0,0-2.4-2.4,2.451,2.451,0,0,0-2.4,2.4Z"/><path class="a" d="M165.465,279.954h52.076c3.089,0,3.094-4.8,0-4.8H165.465c-3.088,0-3.093,4.8,0,4.8Z"/><path class="a" d="M48.776,220.31H334.231c3.088,0,3.093-4.8,0-4.8H48.776c-3.089,0-3.094,4.8,0,4.8Z"/><path class="c" d="M231.392,105.888h-79.4a1.728,1.728,0,0,0-1.728,1.728v79.5a1.733,1.733,0,0,0,1.728,1.728h79.5a1.725,1.725,0,0,0,1.728-1.727c-.014-10.685-.089-67.718-.1-79.508A1.723,1.723,0,0,0,231.392,105.888Z"/><path class="a" d="M231.392,103.488H152.838c-.264,0-.53-.011-.794,0a4.221,4.221,0,0,0-4.179,4.129c-.03.66,0,1.328,0,1.988v76.664c0,.269-.011.54,0,.809a4.238,4.238,0,0,0,4.129,4.165c2.489.111,5.008,0,7.5,0h71.18c.259,0,.521.011.78,0a4.225,4.225,0,0,0,4.166-4.221c.076-2.155-.006-4.328-.009-6.485q-.015-11.069-.029-22.137-.03-23.484-.057-46.968l0-3.047c0-2.666-1.3-4.646-4.129-4.9a2.418,2.418,0,0,0-2.4,2.4,2.45,2.45,0,0,0,2.4,2.4c-.094-.008-1-.458-.671-.68a1.543,1.543,0,0,0,0,.319,5.066,5.066,0,0,0,0,.578q0,.732,0,1.463l0,3.651q.006,4.785.011,9.571.015,12.368.031,24.736.015,12.173.031,24.346l.012,9.271,0,3.387,0,1.364a4.7,4.7,0,0,0,0,.531c.107.889.226-.954.673-.382-.14-.179-1.693,0-1.905,0H153.654c-.426,0-.866-.031-1.292,0-.584.043-.274-.036.212.331.233.176.065.5.091-.108.02-.455,0-.917,0-1.373V109.357c0-.441.029-.893,0-1.333-.035-.547.067-.488-.333.172-.135.224-.529.064.109.092.429.019.862,0,1.291,0h77.66C234.481,108.288,234.486,103.488,231.392,103.488Z"/><path class="d" d="M150.793,76.215l35.994,62.345a4.2,4.2,0,0,1-3.641,6.306H111.157a4.2,4.2,0,0,1-3.641-6.306L143.51,76.215A4.205,4.205,0,0,1,150.793,76.215Z"/><path class="a" d="M148.72,77.426l8.135,14.09,15.941,27.61L184.1,138.7c.2.352.439.7.616,1.066a1.812,1.812,0,0,1-1.732,2.7c-2.008.045-4.022,0-6.03,0H111.7c-.963,0-1.755-.153-2.181-1.041a2.231,2.231,0,0,1,.379-2.188l10.383-17.984L136.362,93.4l6.2-10.736c.982-1.7,1.894-3.475,2.96-5.127.831-1.289,2.352-1.462,3.2-.109,1.637,2.612,5.791.206,4.145-2.422a6.679,6.679,0,0,0-10.6-1.126,11.7,11.7,0,0,0-1.358,2.043l-4.32,7.481-15.765,27.306-13.637,23.621c-1.231,2.131-2.861,4.327-2.6,6.917a6.7,6.7,0,0,0,6.651,6.02c.637.017,1.277,0,1.915,0h67.763c.7,0,1.395.016,2.09,0a6.744,6.744,0,0,0,6.5-4.806c.882-3.032-.829-5.432-2.246-7.886l-5.542-9.6-16.4-28.4-11.838-20.5L152.865,75C151.321,72.329,147.171,74.744,148.72,77.426Z"/><path class="b" d="M369.728,26.442c-3.157-.148-5.447,1.395-7.932,3.093q-4.177,2.853-8.321,5.757c-15.685,10.993-31.414,22.054-46.683,33.624l-.4.3a4.072,4.072,0,0,0-.866,5.577l5.893,8.426a4.073,4.073,0,0,0,5.536,1.1c15.431-9.885,30.535-20.6,45.321-31.422,4.434-3.245,9-6.461,13.176-10.038a9.352,9.352,0,0,0-5.723-16.42Z"/><path class="a" d="M369.728,24.042c-3.67-.085-6.616,1.693-9.541,3.692q-4.782,3.27-9.519,6.6-9.782,6.858-19.52,13.775-9.529,6.8-18.94,13.76-2.348,1.743-4.683,3.5c-1.425,1.073-3.142,2.072-4.121,3.605a6.557,6.557,0,0,0,.157,7.184c1.8,2.651,3.665,5.268,5.515,7.886a6.9,6.9,0,0,0,5.688,3.315,8.408,8.408,0,0,0,4.619-1.753q2.436-1.569,4.857-3.161c13.211-8.689,26.094-17.863,38.857-27.194,3.482-2.546,6.99-5.055,10.389-7.711,2.989-2.336,5.882-4.543,7.056-8.313,2.314-7.433-3.259-14.692-10.814-15.191a2.4,2.4,0,0,0,0,4.8,7.018,7.018,0,0,1,5.929,9.814c-1.152,2.59-4.037,4.327-6.2,5.99-2.756,2.115-5.586,4.132-8.39,6.181C349.6,59.205,338.05,67.467,326.25,75.365q-4.419,2.957-8.884,5.841c-1.249.806-2.754,2.156-3.985.65-1.865-2.283-3.425-4.9-5.115-7.314-.587-.839-1.461-1.784-.916-2.847.471-.919,1.77-1.552,2.6-2.175q2.141-1.612,4.292-3.211,8.61-6.4,17.347-12.633,9.715-6.953,19.511-13.8c3.3-2.315,6.6-4.629,9.923-6.912,2.629-1.807,5.346-4.205,8.708-4.127C372.818,28.913,372.817,24.113,369.728,24.042Z"/><path class="b" d="M301.924,98.517c4.5-3.151,10.126-8.669,7.494-14.582A19.52,19.52,0,0,0,305.7,77.99c-4.221-4.256-11.394-2.959-15.909.2-4.225,2.955-5.1,6.371-6.06,9.92-1.169,4.338-2.653,5.716-5.836,9.128,3.755,1.774,8.784,4.365,13.034,4.45A19.168,19.168,0,0,0,301.924,98.517Z"/><path class="a" d="M303.135,100.589c3.864-2.73,8.038-6.418,9.087-11.26a11.508,11.508,0,0,0-1.254-7.738,17.018,17.018,0,0,0-4.828-6.367c-3.715-2.807-8.855-2.861-13.106-1.341a17.025,17.025,0,0,0-10.42,9.743c-.843,2.128-1.122,4.485-2.14,6.538a23.421,23.421,0,0,1-4.273,5.375c-.973,1.042-.969,3.081.485,3.77,4.245,2.011,8.554,4.246,13.3,4.718a20.69,20.69,0,0,0,13.153-3.438c2.541-1.725.142-5.886-2.423-4.144a16.311,16.311,0,0,1-10.73,2.782c-3.829-.438-7.444-2.439-10.873-4.063l.486,3.769c2.738-2.931,5.134-5.69,6.292-9.615a30.388,30.388,0,0,1,1.575-4.886,11.056,11.056,0,0,1,3.812-4.355c2.769-1.855,6.458-3.007,9.764-2.1a7.311,7.311,0,0,1,4.038,2.974,13.2,13.2,0,0,1,2.592,5.487c.49,4.209-3.913,7.855-6.956,10.006a2.465,2.465,0,0,0-.861,3.283A2.42,2.42,0,0,0,303.135,100.589Z"/><path class="b" d="M267.5,7.283C249.031-1.5,224.514.841,211.471,19.463c-9.845,14.057-9.584,32.651-3.352,45.911,6.722,14.305,27.75,28.607,43.385,19.658a10.861,10.861,0,0,0,5.6-9.515c.109-2.653-.224-5.339.249-7.953,1.157-6.4,6.89-10.621,13.229-10.879,6.928-.282,12.746-.114,16.365-7.282a21.673,21.673,0,0,0,1.564-13.194c-2.025-12.445-9.322-23.777-21.077-28.993"/><path class="a" d="M268.708,5.211c-15.742-7.423-35.645-7.428-49.932,3.324-16.148,12.151-21.215,34.536-14.693,53.248a43.813,43.813,0,0,0,16.438,21.3c7.388,5.229,16.847,8.56,25.911,6.5,4.432-1.009,9.032-3.362,11.317-7.456a15.164,15.164,0,0,0,1.772-7.072c.068-2.738-.316-5.541.471-8.208a11.208,11.208,0,0,1,8.349-7.444,37.462,37.462,0,0,1,6.258-.49,25.075,25.075,0,0,0,6.046-.967c4.663-1.5,7.745-5.176,9.391-9.692,1.9-5.213,1.371-10.985.053-16.266a40.971,40.971,0,0,0-15.4-23.359,34.272,34.272,0,0,0-6.045-3.48A2.474,2.474,0,0,0,265.363,6a2.42,2.42,0,0,0,.861,3.284,34.038,34.038,0,0,1,17.29,18.044,35.017,35.017,0,0,1,2.966,13.234c.006,4.128-1.232,9.158-4.808,11.615-2.87,1.972-6.6,1.933-10.058,2.064A18.193,18.193,0,0,0,259.7,58.658c-3.646,3.285-5.013,7.844-5.006,12.633,0,2.356.244,4.738-.483,7.016a8.01,8.01,0,0,1-3.15,4.175c-6.781,4.553-15.657,3.232-22.587-.224A40.584,40.584,0,0,1,210.9,65.564c-8.24-15.412-5.949-36.607,6.268-49.255C228.437,4.637,246.017,2.3,261,7.249a46.77,46.77,0,0,1,5.289,2.106,2.466,2.466,0,0,0,3.283-.861,2.419,2.419,0,0,0-.861-3.283Z"/><path class="b" d="M236.667,32.816a8.438,8.438,0,0,1-.456,1.718,7.292,7.292,0,0,1-.774,1.34,6.916,6.916,0,0,1-.965.963,7.218,7.218,0,0,1-1.3.752,8.243,8.243,0,0,1-1.665.442,9.476,9.476,0,0,1-2.116,0,8.192,8.192,0,0,1-1.644-.439,7.415,7.415,0,0,1-1.345-.779,7.171,7.171,0,0,1-1-1,7.335,7.335,0,0,1-.785-1.357,8.324,8.324,0,0,1-.45-1.693,8.874,8.874,0,0,1-.015-1.886,7.954,7.954,0,0,1,.449-1.668,7.714,7.714,0,0,1,.8-1.37,6.008,6.008,0,0,1,2.418-1.863,7.964,7.964,0,0,1,1.709-.459,8.6,8.6,0,0,1,1.793,0,8.048,8.048,0,0,1,1.691.454,5.986,5.986,0,0,1,2.418,1.855,7.744,7.744,0,0,1,.8,1.362,7.972,7.972,0,0,1,.455,1.684A9.033,9.033,0,0,1,236.667,32.816Z"/><path class="b" d="M230.925,55.473a8.438,8.438,0,0,1-.456,1.718,7.375,7.375,0,0,1-.774,1.339,7.033,7.033,0,0,1-.965.964,7.213,7.213,0,0,1-1.3.751,8.2,8.2,0,0,1-1.665.442,9.425,9.425,0,0,1-2.117,0,8.2,8.2,0,0,1-1.643-.438,7.419,7.419,0,0,1-1.345-.78,7.124,7.124,0,0,1-1-1,7.45,7.45,0,0,1-.785-1.357,8.313,8.313,0,0,1-.449-1.692,8.883,8.883,0,0,1-.015-1.887,7.97,7.97,0,0,1,.449-1.668,7.706,7.706,0,0,1,.8-1.369,5.986,5.986,0,0,1,2.417-1.864,8.031,8.031,0,0,1,1.71-.459,8.587,8.587,0,0,1,1.792,0,7.978,7.978,0,0,1,1.692.453,6.01,6.01,0,0,1,2.418,1.855,7.716,7.716,0,0,1,.8,1.363,7.963,7.963,0,0,1,.455,1.683A9.175,9.175,0,0,1,230.925,55.473Z"/><path class="b" d="M258.237,25.221a8.436,8.436,0,0,1-.455,1.718,7.375,7.375,0,0,1-.774,1.339,7.033,7.033,0,0,1-.965.964,7.248,7.248,0,0,1-1.3.751,8.263,8.263,0,0,1-1.665.443,9.485,9.485,0,0,1-2.117,0A8.18,8.18,0,0,1,249.318,30a7.428,7.428,0,0,1-1.346-.78,7.219,7.219,0,0,1-1-1,7.492,7.492,0,0,1-.785-1.358,8.38,8.38,0,0,1-.45-1.692,8.874,8.874,0,0,1-.015-1.886,7.9,7.9,0,0,1,.45-1.669,7.645,7.645,0,0,1,.8-1.369,7.556,7.556,0,0,1,1.083-1.085,7.573,7.573,0,0,1,1.334-.779,8.015,8.015,0,0,1,1.71-.459,8.587,8.587,0,0,1,1.792,0,7.994,7.994,0,0,1,1.692.453,7.643,7.643,0,0,1,1.351.789A7.624,7.624,0,0,1,257,20.236a7.711,7.711,0,0,1,.8,1.363,7.846,7.846,0,0,1,.455,1.683A9.043,9.043,0,0,1,258.237,25.221Z"/><path class="a" d="M234.353,32.178c-.05.293-.107.584-.183.871-.028.108-.059.215-.092.321-.018.059-.172.5-.068.236.094-.235-.051.094-.063.116-.071.13-.14.26-.216.387s-.152.254-.238.372c.2-.272-.028.011-.133.119-.087.091-.617.536-.275.289a7.2,7.2,0,0,1-.737.44c-.027.015-.347.156-.1.058.268-.107-.157.043-.22.063-.275.084-.56.131-.836.209-.343.1.348.006-.033.005-.156,0-.314.02-.47.024-.276.007-.55-.011-.825-.013-.1,0-.469-.076-.041.008-.1-.02-.209-.041-.313-.064a7.559,7.559,0,0,1-.921-.264c.416.151-.2-.117-.319-.187s-.248-.167-.378-.235c-.235-.122.012.015.057.055-.2-.18-.384-.374-.578-.562-.075-.073-.234-.335-.019,0-.081-.125-.165-.249-.242-.377s-.143-.263-.218-.392c-.049-.084-.154-.412-.029-.037-.081-.243-.158-.486-.22-.735-.035-.141-.056-.288-.1-.427-.073-.258,0,.025,0,.078a9.4,9.4,0,0,1-.03-1.062c0-.066.036-.557,0-.259-.029.26.02-.087.027-.118.067-.282.142-.557.225-.835.007-.023.134-.354.036-.122-.11.261.092-.164.122-.219.054-.1.11-.2.168-.3.025-.04.433-.587.143-.249a7.29,7.29,0,0,1,.53-.554c.08-.075.161-.149.244-.221-.3.258-.03.028.047-.016.257-.146.5-.3.769-.434-.052.025-.317.095-.061.033.178-.044.352-.115.53-.163.143-.038.287-.069.431-.1.031-.007.388-.059.12-.028-.3.035.17,0,.238,0,.15-.006.3-.008.449-.006s.823.073.362,0a6.917,6.917,0,0,1,.853.2c.14.041.279.087.417.136-.4-.143.048.04.132.085.132.072.26.147.387.226.08.05.456.35.143.076.218.19.418.395.619.6.307.314.1.113.039.025.11.152.207.314.3.476.057.1.11.2.165.3.309.546-.011-.184.07.14s.182.629.264.946c.026.1.03.426.014.034.006.161.019.323.021.485a10.426,10.426,0,0,1-.06,1.211,2.408,2.408,0,0,0,2.4,2.4,2.466,2.466,0,0,0,2.4-2.4A8.736,8.736,0,0,0,234.428,24a8.754,8.754,0,0,0-12.122,11.1,8.55,8.55,0,0,0,8.261,5.392,8.976,8.976,0,0,0,5.6-1.957,8.312,8.312,0,0,0,2.812-5.08,2.458,2.458,0,0,0-1.676-2.952A2.429,2.429,0,0,0,234.353,32.178Z"/><path class="a" d="M228.61,54.835c-.05.293-.106.583-.182.871-.028.107-.06.214-.092.32-.019.06-.173.5-.068.236.094-.234-.051.095-.063.116-.072.13-.14.26-.216.387s-.153.255-.239.373c.2-.273-.027.011-.132.119-.087.09-.618.535-.275.288a7.321,7.321,0,0,1-.737.441c-.027.015-.348.155-.1.058.268-.108-.157.043-.22.062-.275.085-.56.131-.836.21-.343.1.348.006-.033,0-.156,0-.314.02-.471.024-.275.007-.549-.01-.824-.013-.1,0-.469-.076-.042.009-.1-.021-.208-.042-.312-.065a7.559,7.559,0,0,1-.921-.264c.415.152-.2-.117-.319-.187s-.248-.166-.378-.234c-.235-.123.011.014.057.055-.2-.18-.385-.375-.578-.563-.076-.073-.235-.335-.019,0-.081-.126-.165-.25-.242-.378s-.143-.262-.218-.392c-.049-.083-.154-.412-.029-.037-.081-.243-.158-.486-.22-.734-.036-.142-.056-.288-.1-.428-.073-.258,0,.025,0,.079a9.41,9.41,0,0,1-.029-1.062c0-.066.036-.557,0-.26-.029.261.02-.087.027-.117.066-.283.142-.557.225-.835.007-.024.134-.355.036-.122-.111.26.092-.165.122-.22.054-.1.109-.2.168-.295.024-.041.433-.588.142-.25a7.3,7.3,0,0,1,.531-.553c.08-.076.161-.149.243-.222-.295.258-.03.028.047-.016.257-.146.5-.3.77-.434-.052.026-.317.1-.061.033.178-.044.351-.115.529-.163.143-.038.287-.068.431-.1.031-.007.389-.06.12-.028-.3.034.171,0,.239,0,.149-.006.3-.007.449-.005s.823.072.362,0a7.149,7.149,0,0,1,.853.2c.14.042.279.087.416.137-.4-.144.049.039.133.085q.2.106.386.225c.08.05.457.35.144.077.217.19.418.394.619.6.307.315.1.113.039.025.109.152.207.315.3.477.057.1.109.2.165.3.308.547-.012-.184.07.14s.182.63.263.946c.026.1.03.426.015.034.006.162.018.323.021.485a10.454,10.454,0,0,1-.06,1.212,2.407,2.407,0,0,0,2.4,2.4,2.467,2.467,0,0,0,2.4-2.4,8.737,8.737,0,0,0-4.639-8.817,8.754,8.754,0,0,0-12.122,11.1,8.549,8.549,0,0,0,8.261,5.392,8.983,8.983,0,0,0,5.6-1.956,8.314,8.314,0,0,0,2.812-5.08,2.459,2.459,0,0,0-1.676-2.953A2.431,2.431,0,0,0,228.61,54.835Z"/><path class="a" d="M255.923,24.583c-.05.293-.106.583-.182.871-.029.107-.06.214-.093.32-.018.06-.172.5-.068.236.095-.234-.051.095-.063.116-.071.13-.139.26-.215.387s-.153.255-.239.373c.2-.273-.027.011-.132.119-.088.09-.618.535-.275.288a7.321,7.321,0,0,1-.737.441c-.028.015-.348.156-.105.058.268-.108-.157.043-.219.062-.276.085-.561.131-.836.21-.343.1.348.006-.033,0-.156,0-.314.02-.471.024-.275.007-.549-.01-.824-.013-.1,0-.469-.076-.042.009-.1-.021-.209-.042-.313-.065a7.321,7.321,0,0,1-.92-.264c.415.152-.2-.117-.32-.187s-.247-.166-.378-.234c-.234-.123.012.014.057.055-.2-.18-.384-.375-.577-.563-.076-.073-.235-.335-.019,0-.082-.126-.165-.249-.242-.378s-.143-.262-.219-.391c-.048-.084-.154-.413-.029-.038-.081-.242-.157-.486-.22-.734-.035-.142-.055-.288-.095-.428-.073-.257,0,.025,0,.079a9.652,9.652,0,0,1-.03-1.062c0-.066.036-.557,0-.26-.029.261.021-.087.028-.117.066-.283.141-.557.225-.835.007-.024.134-.355.035-.122-.11.26.092-.165.122-.22.054-.1.11-.2.168-.295.025-.041.434-.588.143-.25a7.3,7.3,0,0,1,.531-.553c.079-.076.16-.149.243-.222-.3.258-.03.028.047-.016.257-.146.5-.3.769-.434-.052.026-.316.1-.06.033.178-.044.351-.115.529-.162.143-.039.287-.069.431-.1.031-.007.389-.059.12-.028-.3.034.171,0,.238-.005.15-.006.3-.007.449,0s.823.072.363,0a7.133,7.133,0,0,1,.852.2c.14.042.28.087.417.137-.4-.144.049.039.133.085q.2.106.386.225c.08.05.457.35.144.077.217.19.417.394.619.6.306.315.1.113.038.025a5.635,5.635,0,0,1,.3.477c.058.1.11.2.166.295.308.547-.012-.183.07.141s.182.629.263.945c.026.1.03.426.014.034.007.162.019.323.022.485a10.444,10.444,0,0,1-.061,1.212,2.408,2.408,0,0,0,2.4,2.4,2.466,2.466,0,0,0,2.4-2.4A8.733,8.733,0,0,0,256,16.405a9.047,9.047,0,0,0-9.971,1.349,9.023,9.023,0,0,0-2.151,9.749,8.546,8.546,0,0,0,8.26,5.392,8.986,8.986,0,0,0,5.6-1.956,8.319,8.319,0,0,0,2.812-5.08,2.459,2.459,0,0,0-1.677-2.953A2.43,2.43,0,0,0,255.923,24.583Z"/><path class="e" d="M273.834,177.189a39.665,39.665,0,0,1-2.141,8.074,34.415,34.415,0,0,1-3.639,6.295,32.726,32.726,0,0,1-4.534,4.529,33.961,33.961,0,0,1-6.11,3.532,38.768,38.768,0,0,1-7.825,2.079,44.666,44.666,0,0,1-9.949.014,38.434,38.434,0,0,1-7.723-2.063,34.647,34.647,0,0,1-6.323-3.664,33.574,33.574,0,0,1-4.683-4.688,34.917,34.917,0,0,1-3.689-6.378,39.191,39.191,0,0,1-2.113-7.955,41.636,41.636,0,0,1-.071-8.865,37.192,37.192,0,0,1,2.112-7.84,36.154,36.154,0,0,1,3.75-6.438,28.2,28.2,0,0,1,11.361-8.759,37.556,37.556,0,0,1,8.035-2.155,40.281,40.281,0,0,1,8.425,0,37.638,37.638,0,0,1,7.95,2.133,28.179,28.179,0,0,1,11.364,8.718,36.13,36.13,0,0,1,3.748,6.4,37.175,37.175,0,0,1,2.139,7.911A42.7,42.7,0,0,1,273.834,177.189Z"/><path class="a" d="M271.52,176.551c-.919,5.623-2.854,11.057-6.87,15.228a26.257,26.257,0,0,1-14.37,7.371,31.707,31.707,0,0,1-17.287-1.649,24.622,24.622,0,0,1-12.135-10.695c-5.489-9.637-4.975-23.352,2.314-31.981a26.919,26.919,0,0,1,14.128-8.866,30.072,30.072,0,0,1,17,.775,25.645,25.645,0,0,1,13.8,11.534,28.5,28.5,0,0,1,3.173,8.65,33.62,33.62,0,0,1,.154,10.271,2.415,2.415,0,0,0,2.4,2.4,2.455,2.455,0,0,0,2.4-2.4c.73-6.773.01-13.685-3.145-19.809a31.187,31.187,0,0,0-12.884-13.25c-11.624-6.317-27.393-4.87-37.283,4.073-10.164,9.191-12.868,23.785-8.337,36.494a29.183,29.183,0,0,0,12.073,14.891,34.389,34.389,0,0,0,19.139,4.777c7.328-.208,14.838-2.48,20.4-7.415,5.642-5.007,8.751-11.757,9.954-19.123a2.472,2.472,0,0,0-1.676-2.952A2.419,2.419,0,0,0,271.52,176.551Z"/><path class="c" d="M60.791,117.665a8.72,8.72,0,0,0-7.961,9.684,8.576,8.576,0,0,0,9.75,8.066c5.352-.539,8.476-4.578,7.945-9.849A8.712,8.712,0,0,0,60.791,117.665Z"/><path class="c" d="M13.411,69.871a44.683,44.683,0,0,1,4.462-1.945l.509-.184q1.2-.413-.361.109a5.172,5.172,0,0,1,1.037-.31q1.3-.37,2.623-.662a44.127,44.127,0,0,1,4.806-.779c.449-.047.9-.072,1.348-.121,1.171-.127-1.991.042-.175,0,.9-.018,1.8-.029,2.706,0a43.042,43.042,0,0,1,4.849.421,9.8,9.8,0,0,1,2.664.471c-.126-.066-1.836-.465-.439-.079.488.134.979.255,1.465.4a42.765,42.765,0,0,1,4.293,1.5q1.17.48,2.31,1.028c.3.144.6.326.906.449-1.9-.766-.445-.225.009.033a43.737,43.737,0,0,1,3.832,2.452q1.029.735,2.014,1.529c.262.212.523.426.78.644.194.163.385.328.575.495q.645.569-.516-.485c.579.241,1.369,1.32,1.8,1.772q.7.729,1.365,1.491a47.679,47.679,0,0,1,3.1,4.019c.78,1.111-.077-.174-.2-.325a14.283,14.283,0,0,1,.847,1.354c.372.606.736,1.216,1.1,1.826,1.158,1.936,2.336,3.853,3.571,5.74a35.817,35.817,0,0,0,7.53,8.462A29.86,29.86,0,0,0,96.9,104.728c3.93-.887,7.126-4.855,6.15-9.011-.927-3.95-4.8-7.1-9.01-6.15a22.73,22.73,0,0,1-2.456.43,4.9,4.9,0,0,0-.993.09l1.07-.062c-.25.006-.5.007-.748,0a22.063,22.063,0,0,1-2.24-.143c-.33-.038-.66-.083-.988-.136s-.656-.113-.982-.18q1.686.383.806.156a47.141,47.141,0,0,1-4.425-1.68c.049-.076,1.69.993.462.2-.28-.179-.567-.346-.845-.53-.768-.507-1.469-1.078-2.183-1.656-.846-.684,1.325,1.38.142.091-.238-.259-.485-.508-.72-.769-.586-.652-1.137-1.335-1.664-2.036-.476-.634-.916-1.291-1.366-1.942-.649-.938.983,1.612.069.095-.275-.456-.559-.906-.835-1.361a112.677,112.677,0,0,0-6.186-9.658A50.967,50.967,0,0,0,32.448,50.643a52.054,52.054,0,0,0-25.7,5.313c-3.609,1.8-5.61,6.572-3.627,10.288a7.843,7.843,0,0,0,10.288,3.627Z"/><path class="a" d="M60.791,115.265a11.928,11.928,0,0,0-6.812,2.9,10.894,10.894,0,0,0-3.321,5.771,11.768,11.768,0,0,0,4.789,12.208,12.012,12.012,0,0,0,12.929-.3,11.448,11.448,0,0,0,4.242-12.2,11.2,11.2,0,0,0-11.827-8.381,2.463,2.463,0,0,0-2.4,2.4,2.419,2.419,0,0,0,2.4,2.4,10.519,10.519,0,0,1,1.527-.035c.163.009.328.021.49.04-.48-.056.288.065.313.071a11.245,11.245,0,0,1,1.126.328c.661.222-.332-.213.273.121.2.11.4.21.6.327s.381.242.567.371c-.082-.057-.307-.271.048.038.313.272.6.56.885.859.072.074.375.455.122.123.136.179.262.368.381.558q.12.192.231.39c.042.075.423.874.248.455a8.1,8.1,0,0,1,.36,1.1c.049.189.087.381.128.572.022.106.077.608.035.185a11.409,11.409,0,0,1,.058,1.212c0,.234-.011.469-.028.7-.011.153-.025.306-.044.458.03-.227.031-.253,0-.08a10.058,10.058,0,0,1-.29,1.174c-.044.137-.094.271-.142.407-.22.628.232-.364-.1.206q-.262.453-.527.905c-.328.557.3-.3-.126.179-.139.155-.275.313-.421.461-.1.1-.85.727-.469.448a8.359,8.359,0,0,1-1,.628c-.162.086-.326.168-.493.244.458-.21-.222.076-.264.09-.448.153-.9.25-1.363.359-.734.175.235-.011-.215.042q-.3.036-.612.052a10.2,10.2,0,0,1-1.186,0c-.052,0-.8-.1-.275-.016-.185-.029-.369-.065-.551-.106a8.5,8.5,0,0,1-1.261-.385c-.373-.148.46.27-.117-.065-.185-.107-.379-.2-.562-.309-.122-.074-.238-.157-.359-.23-.564-.337.3.3-.193-.138a10.333,10.333,0,0,1-.768-.741c-.036-.039-.472-.588-.171-.182-.13-.175-.252-.357-.367-.542a7.229,7.229,0,0,1-1.095-4.164c.005-.193.019-.386.034-.579.018-.176.013-.153-.016.067.024-.151.051-.3.082-.45a10.206,10.206,0,0,1,.378-1.306c.228-.65-.222.345.117-.252.11-.2.207-.4.323-.591s.241-.378.368-.564c.365-.535-.275.243.183-.219a5.827,5.827,0,0,1,1.829-1.472,7.071,7.071,0,0,1,.635-.315c-.381.161.253-.078.329-.1q.354-.114.716-.2c.093-.022.95-.162.626-.125a2.473,2.473,0,0,0,2.4-2.4A2.414,2.414,0,0,0,60.791,115.265Z"/><path class="a" d="M14.622,71.943a50.217,50.217,0,0,1,4.92-2.069,2.464,2.464,0,0,0,1.676-2.952,2.428,2.428,0,0,0-2.952-1.676c-.3.089-.589.193-.883.291l1.85,4.387c.247-.109,1.257-.29,1.769-.42q1.484-.374,2.989-.643a43.669,43.669,0,0,0,4.749-.608,2.421,2.421,0,0,0,0-4.628c-1.2-.4-3.128.043-3.724,1.148a2.43,2.43,0,0,0,2.072,3.611c1.65.118,3.322-.032,4.98.083a17.059,17.059,0,0,1,5.173.72l1.276-4.629A5.138,5.138,0,0,0,36.9,64.23c-2.845.013-3.077,3.786-.638,4.715,1.42.54,2.954.817,4.391,1.328,1.572.559,3.042,1.274,4.555,1.966l1.849-4.386c-.155-.063-1.066-.508-.377-.153l-1.849,4.387c.418.146-.516-.3-.035-.019.132.078.283.133.42.2a29.252,29.252,0,0,1,2.9,1.8,45.152,45.152,0,0,1,4.038,3.134,2.431,2.431,0,0,0,4.1-1.7,3.219,3.219,0,0,0-1.44-2.374L51.9,76.907a6.722,6.722,0,0,1,1.161,1.225c.553.617,1.132,1.21,1.673,1.838,1.179,1.37,2.137,2.9,3.277,4.292,1.767,2.163,5.06-.6,3.77-2.908a7.743,7.743,0,0,0-.521-.773,2.47,2.47,0,0,0-3.283-.861A2.419,2.419,0,0,0,57.112,83c1.835,2.567,3.284,5.452,4.993,8.109a44.442,44.442,0,0,0,5.61,7.2,31.417,31.417,0,0,0,14.817,8.507,33.428,33.428,0,0,0,8.32.995,22.844,22.844,0,0,0,8-1.195c5.373-2.132,8.235-8.037,5.841-13.434a10.666,10.666,0,0,0-6.225-5.719,9.371,9.371,0,0,0-4.706-.288c-.726.13-1.442.342-2.178.416a9.145,9.145,0,0,0-1.631.176c-2.53.719-2.137,4.875.638,4.714l1.07-.062c3.059-.177,3.114-4.84,0-4.8a20.714,20.714,0,0,1-4.32-.372c-3-.6-4.31,3.944-1.276,4.628a5.21,5.21,0,0,0,2.375.236c2.354-.567,2.214-3.987,0-4.628-.74-.215-1.464-.484-2.19-.745-.5-.18-1-.361-1.493-.552-.183-.07-.368-.138-.548-.216.621.269.221.1.1.013l.861.861-.008-.018-2.073,3.611.043,0-1.211-.328a7.408,7.408,0,0,1,.872.492c2.654,1.61,5.018-2.489,2.422-4.144-.689-.44-1.391-.857-2.046-1.347a7.743,7.743,0,0,0-2.209-1.513,2.427,2.427,0,0,0-2.711,3.526,3.746,3.746,0,0,0,2.778,1.851,2.421,2.421,0,0,0,2.072-3.612,21.281,21.281,0,0,0-2.311-2.684c-.831-1.021-1.467-2.2-2.332-3.191-1.6-1.828-4.675.11-4.011,2.335a4.54,4.54,0,0,0,.747,1.372,2.458,2.458,0,0,0,3.769.486l0,0a2.431,2.431,0,0,0,.375-2.908c-.772-1.515-1.778-2.949-2.655-4.405-1.1-1.836-2.222-3.665-3.442-5.427a51.3,51.3,0,0,0-7.625-8.775A54.506,54.506,0,0,0,45.9,50.72a53.009,53.009,0,0,0-23.737-1.981A52.271,52.271,0,0,0,9.807,51.983c-3.59,1.442-7.145,3-8.848,6.723A9.8,9.8,0,0,0,2.994,70.02a10.209,10.209,0,0,0,11.628,1.923,2.419,2.419,0,0,0,.861-3.283A2.454,2.454,0,0,0,12.2,67.8a5.417,5.417,0,0,1-6.4-1.805,5.1,5.1,0,0,1,.065-6.239,8.317,8.317,0,0,1,3.52-2.407,45.492,45.492,0,0,1,5.082-1.956A49.407,49.407,0,0,1,25.257,53.18,48.762,48.762,0,0,1,61.78,65.174a46.075,46.075,0,0,1,7.311,8.194c1.22,1.763,2.339,3.591,3.443,5.427.876,1.457,1.883,2.89,2.654,4.405l.375-2.908,0,0,3.77.486c-.264-.346-.573-1.261-.264-.225L75.055,82.89c-.8-.912.392.62.59.9.47.664.961,1.313,1.467,1.95.4.5.813,1,1.248,1.47.2.215.4.432.6.64s.412.708-.014-.056l2.073-3.611H81l1.211.328c.773.54.258.218.1.036-.237-.27-.31-.527.074.163l-2.71,3.526q-1.442-.9-.5-.188.356.287.715.566c.4.313.8.627,1.219.919.545.381,1.116.721,1.677,1.078l2.422-4.144a4.605,4.605,0,0,0-2.126-.823c-1.989-.143-2.756,2.1-2.072,3.611.515,1.137,2.31,1.515,3.367,1.9.921.338,1.843.689,2.785.961V87.489l-.01,0h1.276c-.365-.071-.727-.157-1.089-.238l-1.276,4.628a26.971,26.971,0,0,0,5.6.544v-4.8l-1.07.062.638,4.714c-.566.161.346-.01.561-.029.624-.058,1.254-.165,1.87-.28a6.8,6.8,0,0,1,2.88-.187,5.689,5.689,0,0,1,3.715,3.079c1.73,3.479-.939,6.781-4.374,7.513a27.249,27.249,0,0,1-24.77-7.576,39.95,39.95,0,0,1-5.12-6.637c-1.614-2.527-2.991-5.266-4.733-7.7L57.112,83a7.734,7.734,0,0,1,.52.773L61.4,80.868c.644.788-.374-.564-.484-.716q-.405-.561-.823-1.114c-.722-.953-1.464-1.891-2.255-2.789-1.018-1.156-2.151-2.738-3.52-3.487C52,71.5,49.326,74.638,51.411,76.532c.246.224.494.446.737.674l-.7-1.7v0l4.1-1.7c-2.79-2.39-5.919-5.128-9.44-6.357-2.559-.893-4.262,3.142-1.849,4.387.479.247,1.022.433,1.523.636,2.5,1.015,4.319-3.256,1.849-4.386-1.748-.8-3.464-1.63-5.273-2.3-1.577-.579-3.257-.888-4.819-1.483L36.9,69.03c-1.038,0-.027.022.346.157a2.422,2.422,0,0,0,2.952-1.676,2.464,2.464,0,0,0-1.676-2.953,9.466,9.466,0,0,0-2.671-.487c-1.1-.122-2.19-.278-3.292-.368-1.822-.147-3.652.011-5.466-.119L29.161,67.2l0,0-1.434,1.1c-.546.076-.556.176-.091.047.352-.1.768.224-.174-.088V63.625c.875-.263-.236.006-.528.034-.473.045-.945.095-1.416.154-1.1.139-2.2.3-3.284.508a25.3,25.3,0,0,0-5.426,1.458c-2.481,1.093-.717,5.243,1.849,4.387.294-.1.587-.2.883-.292l-1.276-4.628A62.11,62.11,0,0,0,12.2,67.8a2.424,2.424,0,0,0-.861,3.283A2.449,2.449,0,0,0,14.622,71.943Z"/><path class="e" d="M310.357,126.881a8.746,8.746,0,0,0-10.424,7.034A8.6,8.6,0,0,0,307,144.459c5.3,1.012,9.459-1.978,10.456-7.2A8.739,8.739,0,0,0,310.357,126.881Z"/><path class="e" d="M332.172,173.51c.847-.95,1.714-1.881,2.614-2.782q.625-.625,1.268-1.232.366-.347.738-.685.927-.834-.363.319c-.08-.251,2.433-1.982,2.714-2.195q1.382-1.044,2.832-1.993t2.948-1.777q.429-.238.863-.467-1.572.785-.461.235c.445-.206.885-.42,1.333-.619a42.09,42.09,0,0,1,6.729-2.338c.24-.062.481-.122.722-.178q1.224-.278-.511.107a8.18,8.18,0,0,1,2.289-.405q2.012-.317,4.04-.5a72.345,72.345,0,0,1,8.145-.2q1.332.06-.337-.023c.291.018.582.04.872.064q1.017.081,2.031.193,2.028.225,4.038.578a66.844,66.844,0,0,1,8.471,2.08c1.772.555,4.358-.208,5.826-1.206a7.9,7.9,0,0,0,3.268-4.972c.662-4.569-2.006-7.786-6.178-9.094a70.035,70.035,0,0,0-37.866-1.1c-10.858,2.76-20.37,9.7-27.74,17.966-2.709,3.038-2.51,8.368.744,10.971a7.924,7.924,0,0,0,10.971-.744Z"/><path class="a" d="M311,124.567a11.322,11.322,0,0,0-12.2,5.507,11.778,11.778,0,0,0,1.2,13.1,12.044,12.044,0,0,0,12.523,3.336,11.5,11.5,0,0,0,7.493-10.539,11.235,11.235,0,0,0-9.015-11.4,2.458,2.458,0,0,0-2.952,1.676,2.423,2.423,0,0,0,1.676,2.952,13.488,13.488,0,0,1,1.477.4c.047.015.426.173.111.035.22.1.436.208.646.325a7.674,7.674,0,0,1,.989.637c-.365-.284.209.2.224.216q.251.232.483.485c.021.023.491.6.2.214.091.119.176.245.259.37a9.191,9.191,0,0,1,.605,1.079c.179.376-.155-.515.061.154.07.216.146.427.207.646.041.146.078.293.11.44s.063.3.088.447q-.042-.391,0,.044a11.2,11.2,0,0,1,.032,1.159c-.007.2-.021.391-.041.587-.042.433.135-.54-.033.188-.092.4-.172.792-.291,1.181-.068.226-.148.446-.227.668q-.158.4-.024.062c-.047.1-.1.2-.148.305-.2.356-.4.7-.615,1.046-.041.068-.271.368-.009.034-.131.167-.273.327-.418.483a8.826,8.826,0,0,1-.766.719c.4-.337-.128.082-.186.12q-.262.173-.537.324c-.184.1-.372.194-.564.281.407-.183.072-.032-.015,0-.381.115-.756.222-1.143.317-.117.029-.6.093-.127.036-.225.027-.452.043-.678.052a10.6,10.6,0,0,1-1.414-.044c.409.038-.119-.018-.218-.036-.2-.036-.4-.077-.6-.125-.388-.092-.763-.215-1.14-.342-.678-.229.348.21-.276-.116-.166-.088-.335-.169-.5-.261s-.322-.185-.477-.286q-.186-.119-.364-.248.249.2.055.043a8.171,8.171,0,0,1-.859-.815c-.1-.1-.189-.214-.279-.323.327.4-.1-.152-.13-.2-.2-.3-.359-.615-.527-.932-.312-.588.1.416-.093-.225-.064-.21-.139-.414-.2-.627-.039-.142-.23-1.151-.169-.682a8.947,8.947,0,0,1-.06-1.4c0-.16.013-.321.025-.481,0-.014.112-.8.034-.344a9.925,9.925,0,0,1,.339-1.393,6.634,6.634,0,0,1,2.585-3.321c.192-.12.389-.233.59-.337.026-.014.68-.3.258-.135a8.245,8.245,0,0,1,1.333-.4c.034-.008.79-.115.3-.063.241-.026.484-.04.727-.046s.5,0,.746.014c.169.01.337.024.5.042-.212-.028-.168-.017.133.031a2.468,2.468,0,0,0,2.952-1.676A2.42,2.42,0,0,0,311,124.567Z"/><path class="a" d="M333.869,175.207c1.588-1.771,3.259-3.438,5.007-5.049,2.287-2.107-1.088-5.419-3.394-3.394-.251.221-.5.446-.75.669l4.012,2.335c-.031.191-.764.906-.368.732a1.649,1.649,0,0,0,.3-.259c.169-.145.236-.189.6-.455.475-.348.954-.688,1.427-1.038a50.427,50.427,0,0,1,6.3-3.977c2.741-1.462.326-5.516-2.422-4.145-.306.152-.618.3-.917.459-2.738,1.494-.33,5.48,2.422,4.145A44.078,44.078,0,0,1,355.249,162a2.43,2.43,0,0,0,1.676-2.952,2.456,2.456,0,0,0-2.952-1.676c-.339.057-.678.147-1.013.221l1.85,4.387c.09-.038.6-.02.779-.04.656-.071,1.306-.186,1.96-.274,1.266-.171,2.54-.29,3.815-.37,2.429-.152,4.867-.154,7.3-.07,3.109.108,3.055-4.588,0-4.8-.309-.021-.619-.033-.928-.048-3.1-.157-3.06,4.588,0,4.8a60.972,60.972,0,0,1,7.733,1.017q2.14.426,4.247,1a24.1,24.1,0,0,0,4.261,1.061,10.112,10.112,0,0,0,5.155-19.144,31.117,31.117,0,0,0-7.265-2.326,76.073,76.073,0,0,0-8.28-1.441c-10.508-1.274-21.971-.429-31.846,3.581a56.39,56.39,0,0,0-12.935,7.39,70.507,70.507,0,0,0-5.939,5.032,35.158,35.158,0,0,0-4.977,5.359c-2.716,3.992-2.186,10.111,1.615,13.25a10.468,10.468,0,0,0,14.365-.744c2.106-2.257-1.281-5.659-3.394-3.394a5.616,5.616,0,0,1-8.065.311c-2.052-1.982-1.783-5.425.014-7.445a58.105,58.105,0,0,1,20.037-14.9c8.167-3.525,17.525-4.519,26.342-4.056a67.134,67.134,0,0,1,13.778,2.183c2.939.784,6.386,1.669,7.21,4.926.873,3.455-2.311,7.37-6.006,6.541-2.684-.6-5.275-1.5-7.994-1.994a72.473,72.473,0,0,0-8.056-1.006v4.8c.309.015.619.027.928.048v-4.8a72.209,72.209,0,0,0-8.257.138c-1.426.115-2.847.286-4.262.491a14.477,14.477,0,0,0-3.757.78,2.376,2.376,0,0,0-.982,3,2.424,2.424,0,0,0,2.831,1.39c.337-.075.673-.164,1.013-.222l-1.276-4.628a49.676,49.676,0,0,0-10.315,3.716l2.422,4.145c.3-.163.612-.307.917-.459l-2.422-4.145a58.005,58.005,0,0,0-6.8,4.351c-1.148.835-3.411,1.955-3.659,3.515a2.422,2.422,0,0,0,4.011,2.335c.25-.223.5-.448.75-.669l-3.394-3.394c-1.748,1.611-3.419,3.278-5.007,5.049C328.417,174.106,331.8,177.512,333.869,175.207Z"/></svg>