<svg id="visual" viewBox="0 0 1200 630" width="1200" height="630" xmlns="http://www.w3.org/2000/svg" xmlns:xlink="http://www.w3.org/1999/xlink" version="1.1"><g stroke-width="1" stroke-linejoin="bevel"><path d="M559.3 367L661.7 396L661.7 236Z" fill="#081a28" stroke="#081a28"></path><path d="M661.7 236L544.3 239L559.3 367Z" fill="#112e42" stroke="#112e42"></path><path d="M661.7 396L799 374L661.7 236Z" fill="#081a28" stroke="#081a28"></path><path d="M820 150L645.7 111L661.7 236Z" fill="#297ea6" stroke="#297ea6"></path><path d="M661.7 236L645.7 111L544.3 239Z" fill="#081a28" stroke="#081a28"></path><path d="M799 374L814 219L661.7 236Z" fill="#15384f" stroke="#15384f"></path><path d="M544.3 239L422 351L559.3 367Z" fill="#246688" stroke="#246688"></path><path d="M559.3 367L633.7 527L661.7 396Z" fill="#297ea6" stroke="#297ea6"></path><path d="M395 264L422 351L544.3 239Z" fill="#205a7a" stroke="#205a7a"></path><path d="M515.3 505L633.7 527L559.3 367Z" fill="#277297" stroke="#277297"></path><path d="M661.7 396L836 492L799 374Z" fill="#0c2435" stroke="#0c2435"></path><path d="M422 351L515.3 505L559.3 367Z" fill="#297ea6" stroke="#297ea6"></path><path d="M419 109L395 264L544.3 239Z" fill="#277297" stroke="#277297"></path><path d="M645.7 111L513.3 92L544.3 239Z" fill="#112e42" stroke="#112e42"></path><path d="M814 219L820 150L661.7 236Z" fill="#277297" stroke="#277297"></path><path d="M633.7 527L836 492L661.7 396Z" fill="#112e42" stroke="#112e42"></path><path d="M799 374L907.3 270L814 219Z" fill="#0c2435" stroke="#0c2435"></path><path d="M814 219L907.3 270L820 150Z" fill="#00101c" stroke="#00101c"></path><path d="M938.3 363L907.3 270L799 374Z" fill="#15384f" stroke="#15384f"></path><path d="M513.3 92L419 109L544.3 239Z" fill="#246688" stroke="#246688"></path><path d="M836 492L938.3 363L799 374Z" fill="#205a7a" stroke="#205a7a"></path><path d="M528.3 630L652.7 630L633.7 527Z" fill="#15384f" stroke="#15384f"></path><path d="M633.7 527L808 630L836 492Z" fill="#00101c" stroke="#00101c"></path><path d="M824 0L659.7 0L645.7 111Z" fill="#246688" stroke="#246688"></path><path d="M645.7 111L560.3 0L513.3 92Z" fill="#205a7a" stroke="#205a7a"></path><path d="M513.3 92L360 0L419 109Z" fill="#19435d" stroke="#19435d"></path><path d="M659.7 0L560.3 0L645.7 111Z" fill="#112e42" stroke="#112e42"></path><path d="M297.7 357L370 513L422 351Z" fill="#205a7a" stroke="#205a7a"></path><path d="M422 351L370 513L515.3 505Z" fill="#277297" stroke="#277297"></path><path d="M515.3 505L528.3 630L633.7 527Z" fill="#1d4e6b" stroke="#1d4e6b"></path><path d="M411 630L528.3 630L515.3 505Z" fill="#112e42" stroke="#112e42"></path><path d="M395 264L297.7 357L422 351Z" fill="#19435d" stroke="#19435d"></path><path d="M238.7 284L297.7 357L395 264Z" fill="#205a7a" stroke="#205a7a"></path><path d="M907.3 270L897.3 106L820 150Z" fill="#0c2435" stroke="#0c2435"></path><path d="M820 150L824 0L645.7 111Z" fill="#1d4e6b" stroke="#1d4e6b"></path><path d="M1046.7 163L897.3 106L907.3 270Z" fill="#277297" stroke="#277297"></path><path d="M836 492L935.3 487L938.3 363Z" fill="#205a7a" stroke="#205a7a"></path><path d="M893.3 630L935.3 487L836 492Z" fill="#297ea6" stroke="#297ea6"></path><path d="M652.7 630L808 630L633.7 527Z" fill="#205a7a" stroke="#205a7a"></path><path d="M897.3 106L824 0L820 150Z" fill="#112e42" stroke="#112e42"></path><path d="M297.7 357L301.7 510L370 513Z" fill="#1d4e6b" stroke="#1d4e6b"></path><path d="M370 513L411 630L515.3 505Z" fill="#246688" stroke="#246688"></path><path d="M301.7 510L411 630L370 513Z" fill="#00101c" stroke="#00101c"></path><path d="M241.7 97L238.7 284L395 264Z" fill="#19435d" stroke="#19435d"></path><path d="M297.7 357L150.3 400L301.7 510Z" fill="#081a28" stroke="#081a28"></path><path d="M808 630L893.3 630L836 492Z" fill="#00101c" stroke="#00101c"></path><path d="M560.3 0L360 0L513.3 92Z" fill="#1d4e6b" stroke="#1d4e6b"></path><path d="M419 109L241.7 97L395 264Z" fill="#246688" stroke="#246688"></path><path d="M1103.7 489L1043.7 351L935.3 487Z" fill="#081a28" stroke="#081a28"></path><path d="M935.3 487L1043.7 351L938.3 363Z" fill="#081a28" stroke="#081a28"></path><path d="M938.3 363L1043.7 351L907.3 270Z" fill="#297ea6" stroke="#297ea6"></path><path d="M1043.7 351L1046.7 163L907.3 270Z" fill="#0c2435" stroke="#0c2435"></path><path d="M897.3 106L962.3 0L824 0Z" fill="#205a7a" stroke="#205a7a"></path><path d="M360 0L241.7 97L419 109Z" fill="#19435d" stroke="#19435d"></path><path d="M1046.7 163L962.3 0L897.3 106Z" fill="#19435d" stroke="#19435d"></path><path d="M1043.7 351L1104.7 291L1046.7 163Z" fill="#19435d" stroke="#19435d"></path><path d="M1200 406L1104.7 291L1043.7 351Z" fill="#205a7a" stroke="#205a7a"></path><path d="M238.7 284L150.3 400L297.7 357Z" fill="#112e42" stroke="#112e42"></path><path d="M301.7 510L232.7 630L411 630Z" fill="#1d4e6b" stroke="#1d4e6b"></path><path d="M121.3 221L150.3 400L238.7 284Z" fill="#15384f" stroke="#15384f"></path><path d="M360 0L249.7 0L241.7 97Z" fill="#15384f" stroke="#15384f"></path><path d="M241.7 97L121.3 221L238.7 284Z" fill="#15384f" stroke="#15384f"></path><path d="M1067.7 630L1103.7 489L935.3 487Z" fill="#246688" stroke="#246688"></path><path d="M114.3 534L232.7 630L301.7 510Z" fill="#246688" stroke="#246688"></path><path d="M110.3 152L121.3 221L241.7 97Z" fill="#297ea6" stroke="#297ea6"></path><path d="M893.3 630L1067.7 630L935.3 487Z" fill="#081a28" stroke="#081a28"></path><path d="M1200 99L1071.7 0L1046.7 163Z" fill="#205a7a" stroke="#205a7a"></path><path d="M1046.7 163L1071.7 0L962.3 0Z" fill="#205a7a" stroke="#205a7a"></path><path d="M122.3 0L110.3 152L241.7 97Z" fill="#15384f" stroke="#15384f"></path><path d="M0 520L114.3 534L150.3 400Z" fill="#15384f" stroke="#15384f"></path><path d="M150.3 400L114.3 534L301.7 510Z" fill="#246688" stroke="#246688"></path><path d="M0 359L150.3 400L121.3 221Z" fill="#297ea6" stroke="#297ea6"></path><path d="M1200 406L1200 263L1104.7 291Z" fill="#081a28" stroke="#081a28"></path><path d="M1104.7 291L1200 263L1046.7 163Z" fill="#081a28" stroke="#081a28"></path><path d="M1200 406L1043.7 351L1103.7 489Z" fill="#00101c" stroke="#00101c"></path><path d="M1200 497L1200 406L1103.7 489Z" fill="#1d4e6b" stroke="#1d4e6b"></path><path d="M249.7 0L122.3 0L241.7 97Z" fill="#205a7a" stroke="#205a7a"></path><path d="M1200 630L1200 497L1103.7 489Z" fill="#246688" stroke="#246688"></path><path d="M1200 263L1200 99L1046.7 163Z" fill="#205a7a" stroke="#205a7a"></path><path d="M0 520L97.3 630L114.3 534Z" fill="#1d4e6b" stroke="#1d4e6b"></path><path d="M114.3 534L97.3 630L232.7 630Z" fill="#1d4e6b" stroke="#1d4e6b"></path><path d="M0 89L0 274L110.3 152Z" fill="#19435d" stroke="#19435d"></path><path d="M110.3 152L0 274L121.3 221Z" fill="#277297" stroke="#277297"></path><path d="M0 274L0 359L121.3 221Z" fill="#00101c" stroke="#00101c"></path><path d="M1067.7 630L1200 630L1103.7 489Z" fill="#0c2435" stroke="#0c2435"></path><path d="M1200 99L1200 0L1071.7 0Z" fill="#19435d" stroke="#19435d"></path><path d="M0 359L0 520L150.3 400Z" fill="#112e42" stroke="#112e42"></path><path d="M122.3 0L0 89L110.3 152Z" fill="#0c2435" stroke="#0c2435"></path><path d="M0 520L0 630L97.3 630Z" fill="#1d4e6b" stroke="#1d4e6b"></path><path d="M122.3 0L0 0L0 89Z" fill="#277297" stroke="#277297"></path></g></svg>